<?xml version="1.0" encoding="utf-8"?>
<!-- Generator: Adobe Illustrator 21.1.0, SVG Export Plug-In . SVG Version: 6.00 Build 0)  -->
<svg version="1.1" id="Layer_1" xmlns="http://www.w3.org/2000/svg" xmlns:xlink="http://www.w3.org/1999/xlink" x="0px" y="0px"
	 viewBox="0 0 500 125" style="enable-background:new 0 0 500 125;" xml:space="preserve">
<style type="text/css">
	.st0{fill:#DD9D5B;}
	.st1{fill:#FFFFFF;}
</style>
<title>aboutasset</title>
<g id="Layer_2">
	<g id="Layer_1-2">
		<path id="shade-61" class="st0" d="M30.6,122.3L48.4,107c1.2-1.1,1.9-2.7,1.9-5.2v-2.9h3.8v18.4c0,4.4,2,6.5,6.7,6.5h20.6
			c1.5,0.1,3.1-0.4,4.2-1.4l17.7-15.3c1.2-1.1,1.9-2.7,1.9-5.2V64.4c0-5.8-1.6-13-5.5-23.2L88,9c-1.2-3.8-3.8-5.5-8.1-5.5H43.2
			c-2.6,0-4.5,0.6-6,2L19.7,20.6l-0.1,0.1c-1.1,1.1-1.9,2.4-2.3,3.8l-11.8,32C1.6,66.8,0,74,0,79.8v37.4c0,4.5,1.9,6.5,6.3,6.5h20.1
			C27.9,123.8,29.4,123.3,30.6,122.3z"/>
		<path id="shade-62" class="st0" d="M108,123.7h52.4c9.4,0,16.3-2,20.8-5.9l17.6-15.4c4.7-4.1,7.1-10.2,7.1-18.7V70.6
			c0-13.3-4.7-20.5-14.7-22.8l0.4-0.3c3.4-2.8,5.2-7.5,5.2-14.2v-6.8c0-15.6-8.5-23.1-27.6-23.1h-43.6c-1.6-0.1-3.1,0.3-4.4,1.3
			l-17.6,15.4c-1.2,1.1-1.9,2.7-1.9,5.2v91.7C101.7,121.7,103.7,123.7,108,123.7z"/>
		<path id="shade-6f" class="st0" d="M278.6,116.9l17.6-15.2c6.1-5.4,8.2-12.8,8.2-21.5V31.8c0-17.8-7.9-30.5-43.7-30.5
			c-18.3,0-29.1,3.3-35.5,8.9l-17.8,15.3c-6.1,5.4-8.2,12.9-8.2,21.6v44.1c0,17.8,8.1,34.5,43.8,34.5
			C261.3,125.8,272.2,122.5,278.6,116.9z M250.6,75V48.2c1.7,0.6,2.8,2.3,2.6,4.1v26.9C251.5,78.6,250.5,76.8,250.6,75z"/>
		<path id="shade-75" class="st0" d="M344.3,125.8c18,0,28.8-3.3,35.2-8.9l17.8-15.2c6.1-5.4,8.2-12.8,8.2-21.5V10
			c0-4.5-1.9-6.5-6.3-6.5h-20.8c-1.6-0.1-3.1,0.3-4.4,1.3l-17.7,15.4l-0.1,0.1c-1.1,1-1.6,2.5-1.6,5.1v53.1
			c-1.8-0.8-2.2-2.3-2.2-3.9V10c0-4.5-1.9-6.5-6.3-6.5h-21.5c-1.6-0.1-3.1,0.3-4.4,1.3l-17.6,15.4c-1.2,1.1-1.9,2.7-1.9,5.2v65.9
			C300.7,109.1,308.8,125.8,344.3,125.8z"/>
		<path id="shade-74" class="st0" d="M451.1,123.7c1.5,0.1,3-0.4,4.2-1.4l17.8-15.3c1.2-1.1,1.9-2.7,1.9-5.2V49.1h1.1
			c1.5,0.1,3-0.4,4.2-1.4l17.8-15.3c1.2-1.1,1.9-2.7,1.9-5.2V10c0-4.5-1.9-6.5-6.3-6.5h-72.1c-1.6-0.1-3.1,0.3-4.4,1.3l-17.6,15.4
			c-1.2,1.1-1.9,2.7-1.9,5.2v17.1c0,4.5,1.9,6.5,6.3,6.5h18.7v68.1c0,4.5,1.9,6.5,6.3,6.5L451.1,123.7z"/>
		<path id="regular-61" class="st1" d="M56.7,34.6c0.7-1.7,1.5-2.4,2.6-2.4h3.4c1.1,0,1.9,0.7,2.6,2.4l6.4,21.5H50.3L56.7,34.6z
			 M48.9,101.7V81.9H73v19.8c0,3.5,1.6,5.1,5.3,5.1H99c3.4,0,4.9-1.6,4.9-5.1V64.4c0-5.7-1.6-12.8-5.3-22.6L86.7,9.6
			c-1.1-3.3-3.3-4.7-6.8-4.7H43.2c-3.7,0-5.9,1.4-7,4.7L24.3,41.7c-3.7,9.9-5.3,17-5.3,22.7v37.4c0,3.5,1.5,5.1,4.9,5.1H44
			C47.4,106.8,48.9,105.3,48.9,101.7z"/>
		<path id="regular-62" class="st1" d="M178.1,106.8c18.2,0,26.5-7.4,26.5-23.2v-13c0-13.9-5.5-20.8-17.2-21.9
			c5.5-2.4,8.1-7.4,8.1-15.3v-6.8c0-14.9-8.3-21.6-26.2-21.6h-43.6c-3.4,0-4.9,1.6-4.9,5.1v91.7c0,3.5,1.5,5.1,4.9,5.1H178.1z
			 M151.5,29h11.6c3.5,0,5.2,1.8,5.2,5.7v3.9c0,3.8-1.6,5.7-5.2,5.7h-11.6V29z M151.5,66h17.8c3.5,0,5.2,1.7,5.2,5.5V77
			c0,3.8-1.6,5.7-5.2,5.7h-17.8V66z"/>
		<path id="regular-6f" class="st1" d="M303.1,80.1V31.8c0-17.3-8.2-29-42.3-29s-42.5,11.8-42.5,29v48.3c0,17.3,8.3,28.9,42.5,28.9
			S303.1,97.3,303.1,80.1z M249.3,75V36.9c0-3.7,1.6-6.5,11.5-6.5c9.8,0,11.5,2.8,11.5,6.5V75c0,3.8-1.5,6.7-11.5,6.7
			C250.7,81.6,249.3,78.8,249.3,75z"/>
		<path id="regular-75" class="st1" d="M404.1,80.1V10c0-3.5-1.5-5.1-4.9-5.1h-20.8c-3.5,0-4.9,1.6-4.9,5.1v64.6
			c0,3.8-1.6,6.7-11.4,6.7c-9.7,0-11.2-2.8-11.2-6.7V10c0-3.5-1.5-5.1-4.9-5.1h-21.4c-3.4,0-4.9,1.6-4.9,5.1v70.1
			c0,17.3,8.3,28.9,42.2,28.9S404.1,97.3,404.1,80.1z"/>
		<path id="regular-74" class="st1" d="M468.7,106.8c3.4,0,4.9-1.6,4.9-5.1V32.2h20.1c3.4,0,4.9-1.6,4.9-5.1V10
			c0-3.5-1.5-5.1-4.9-5.1h-72.1c-3.4,0-4.9,1.6-4.9,5.1v17.1c0,3.5,1.5,5.1,4.9,5.1h20.1v69.5c0,3.5,1.5,5.1,4.9,5.1L468.7,106.8z"
			/>
		<path id="inline-61" class="st0" d="M34.8,63.9c-0.1-4.5,0.7-8.9,2.2-13.2l8.7-23.2c1.8-4.8,3.3-8.5,8.8-8.5h13.4
			c5.1,0,6.6,3.7,8.6,8.6l9.4,23.1c1.5,4.2,2.2,8.7,2.2,13.2v4.4H34.8V63.9z M88.1,94.1h1.4V63.9c0.1-4.7-0.7-9.4-2.3-13.8l-9.4-23
			c-2.2-5.5-3.8-9.5-9.8-9.5H54.5c-6.3,0-7.9,4.1-10,9.3l-8.7,23.2c-1.6,4.4-2.4,9.1-2.3,13.8v30.1h1.4V69.7h53.3V94.1z"/>
		<path id="inline-62" class="st0" d="M135.9,94.1h36.7c15.3,0,17.9-5.8,17.9-14.2v-9.1c0-9.3-2.6-16.3-17.8-16.3
			c7.8-2.1,8.7-7.2,8.7-12.9v-9.1c0-8.2-2.7-15-17.9-15h-27.7V94.1z M163.6,19c13.8,0,16.5,5.9,16.5,13.6v9
			c0,6.8-1.5,12.9-16.5,12.9h-26.4V19H163.6z M172.8,56c13.8,0,16.4,6.4,16.4,14.9v9.1c0,7.8-2.8,12.8-16.5,12.8h-35.4V56H172.8z"/>
		<path id="inline-6f" class="st0" d="M288.2,76.8V35c0-11.5-6.3-19.1-27.7-19.1S233,23.6,233,35v41.8c0,11.5,6,19.1,27.4,19.1
			S288.2,88.3,288.2,76.8z M234.4,76.8V35c0-10.6,5.7-17.7,26.1-17.7c20.4,0,26.4,7.1,26.4,17.7v41.8c0,10.6-6,17.7-26.4,17.7
			S234.4,87.4,234.4,76.8L234.4,76.8z"/>
		<path id="inline-75" class="st0" d="M334.7,17.6v59c0,11.5,5.9,19.1,27.3,19.1s27.4-7.6,27.4-19.1v-59h-1.4v59
			c0,10.6-5.7,17.7-26.1,17.7s-25.9-7.1-25.9-17.7v-59L334.7,17.6z"/>
		<path id="inline-74" class="st0" d="M457,94.1h1.4V19h28v-1.4H429V19h28L457,94.1z"/>
	</g>
</g>
</svg>
