<?xml version="1.0" encoding="utf-8"?>
<!-- Generator: Adobe Illustrator 21.1.0, SVG Export Plug-In . SVG Version: 6.00 Build 0)  -->
<svg version="1.1" id="Layer_1" xmlns="http://www.w3.org/2000/svg" xmlns:xlink="http://www.w3.org/1999/xlink" x="0px" y="0px"
	 viewBox="0 0 500 125" style="enable-background:new 0 0 500 125;" xml:space="preserve">
<style type="text/css">
	.st0{fill:#DD6D5B;}
	.st1{fill:#FFFFFF;}
</style>
<title>foodasset</title>
<g id="Layer_2">
	<g id="Layer_1-2">
		<path id="shade-66" class="st0" d="M73.4,123.6c1.6,0.1,3.2-0.4,4.5-1.4l18.7-15.6c1.3-1.2,2-2.7,2-5.3V90.1h5
			c1.6,0.1,3.2-0.4,4.5-1.4l18.8-15.5c1.3-1.2,2-2.7,2-5.3V50.5c0-4.6-2-6.6-6.5-6.6l16.1-13.4c1.3-1.1,2-2.7,2-5.3V8
			c0-4.6-2-6.6-6.6-6.6H69.6C68,1.2,66.4,1.7,65,2.7L46.4,18.4c-1.3,1.1-2,2.7-2,5.3V117c0,4.6,2,6.6,6.6,6.6L73.4,123.6z"/>
		<path id="shade-6f" class="st0" d="M214.8,116.7l18.6-15.5c6.5-5.5,8.6-13,8.6-21.9V30.2c0-18.1-8.4-31-46.1-31
			c-19.3,0-30.7,3.3-37.5,9.1l-18.7,15.6c-6.5,5.5-8.6,13.1-8.6,22v44.8c0,18.1,8.5,35.1,46.2,35.1
			C196.5,125.8,208,122.5,214.8,116.7z M185.3,74.1V46.9c1.8,0.6,2.9,2.3,2.7,4.2v27.4C186.2,77.7,185.1,76,185.3,74.1z"/>
		<path id="shade-6f-2" class="st0" d="M320.9,116.7l18.6-15.5c6.5-5.5,8.6-13,8.6-21.9V30.2c0-18.1-8.4-31-46.1-31
			c-19.3,0-30.7,3.3-37.4,9.1l-18.7,15.6c-6.5,5.5-8.6,13.1-8.6,22v44.8c0,18.1,8.5,35.1,46.2,35.1
			C302.6,125.8,314.1,122.5,320.9,116.7z M291.4,74.1V46.9c1.8,0.6,2.9,2.3,2.7,4.2v27.4C292.4,77.7,291.3,76,291.4,74.1z"/>
		<path id="shade-64" class="st0" d="M427.8,116l18.7-15.5c6-5.2,9.1-12.8,9.1-23.3V32.2c0-20.9-11.5-30.8-36.9-30.8h-48.5
			c-1.6-0.1-3.3,0.3-4.6,1.3L347,18.4c-1.3,1.1-2,2.7-2,5.3V117c0,4.6,2,6.6,6.6,6.6h48.5C412.6,123.6,421.9,121,427.8,116z
			 M401.6,52.9v24.9h-2.5v-30C400.8,48.6,401.6,50.3,401.6,52.9z"/>
		<path id="regular-66" class="st1" d="M92,106.5c3.6,0,5.2-1.6,5.2-5.2V72.9h25.1c3.6,0,5.2-1.6,5.2-5.2V50.5
			c0-3.6-1.6-5.2-5.2-5.2H97.1v-15h36.7c3.6,0,5.2-1.6,5.2-5.2V8c0-3.6-1.6-5.2-5.2-5.2H69.6c-3.6,0-5.2,1.6-5.2,5.2v93.3
			c0,3.6,1.6,5.2,5.2,5.2H92z"/>
		<path id="regular-6f" class="st1" d="M240.6,79.3V30.2c0-17.6-8.6-29.5-44.6-29.5s-44.8,11.9-44.8,29.5v49.1
			c0,17.6,8.8,29.4,44.8,29.4S240.6,96.8,240.6,79.3z M183.8,74.1V35.3c0-3.7,1.7-6.6,12.1-6.6s12.1,2.9,12.1,6.6v38.7
			c0,3.9-1.6,6.8-12.1,6.8S183.8,78,183.8,74.1z"/>
		<path id="regular-6f-2" class="st1" d="M346.7,79.3V30.2c0-17.6-8.6-29.5-44.6-29.5s-44.8,12-44.8,29.5v49.1
			c0,17.6,8.8,29.4,44.8,29.4S346.7,96.8,346.7,79.3z M290,74.1V35.3c0-3.7,1.7-6.6,12.1-6.6s12.1,2.9,12.1,6.6v38.7
			c0,3.9-1.6,6.8-12.1,6.8S290,78,290,74.1z"/>
		<path id="regular-64" class="st1" d="M418.7,106.5c24.2,0,35.4-9.4,35.4-29.4V32.2c0-20-11.2-29.4-35.4-29.4h-48.5
			c-3.6,0-5.2,1.6-5.2,5.2v93.3c0,3.6,1.6,5.2,5.2,5.2H418.7z M397.7,30.3h17.1c4.6,0,6.8,2.2,6.8,6.9v35c0,4.9-2.2,7.1-6.8,7.1
			h-17.2L397.7,30.3z"/>
		<path id="inline-66" class="st0" d="M80.2,93.5h1.4V59.8h32.9v-1.4H81.6V17.2h44.5v-1.4H80.2V93.5z"/>
		<path id="inline-6f" class="st0" d="M224.9,76V33.5c0-11.7-6.6-19.4-29.2-19.4s-28.9,7.8-28.9,19.4V76c0,11.7,6.3,19.4,28.9,19.4
			S224.9,87.6,224.9,76z M168.1,76V33.5c0-10.8,6-18,27.5-18s27.8,7.2,27.8,18V76c0,10.8-6.3,18-27.8,18S168.1,86.8,168.1,76
			L168.1,76z"/>
		<path id="inline-6f-2" class="st0" d="M331,76V33.5c0-11.7-6.6-19.4-29.2-19.4s-28.9,7.8-28.9,19.4V76c0,11.7,6.3,19.4,28.9,19.4
			S331,87.6,331,76z M274.3,76V33.5c0-10.8,6-18,27.5-18s27.8,7.2,27.8,18V76c0,10.8-6.3,18-27.8,18S274.3,86.8,274.3,76L274.3,76z"
			/>
		<path id="inline-64" class="st0" d="M380.7,93.5h34.9c19.9,0,23-8.5,23-19.6V35.8c0-11.1-3.5-20-23-20h-34.9V93.5z M415.5,17.2
			c18.1,0,21.6,8.1,21.6,18.6v38.2c0,10.5-3.2,18.1-21.6,18.1h-33.4V17.2H415.5z"/>
	</g>
</g>
</svg>
