<svg xmlns="http://www.w3.org/2000/svg" viewBox="0 0 706.46 122.26"><defs><style>.cls-1{fill:#dd9d5b;}.cls-2{fill:#fff;}</style></defs><title>gabriel</title><g id="Layer_2" data-name="Layer 2"><g id="Layer_1-2" data-name="Layer 1"><path id="shade-67" class="cls-1" d="M82.22,122.26a6.35,6.35,0,0,0,4.46-1.44l18.72-15.55c1.3-1.15,2-2.74,2-5.33V55.44c0-4.61-2-6.62-6.62-6.62H78.48a7,7,0,0,0-4.61,1.3L55.3,65.81a9.32,9.32,0,0,0-1.15,1.3V46.37H72.86a6.35,6.35,0,0,0,4.46-1.44L96,29.38c1.3-1.15,2-2.74,2-5.33V6.62C98.06,2,96,0,91.44,0h-36C42.91,0,33.7,2.45,27.65,7.49L9.07,23.18C3,28.37,0,35.86,0,46.51V87.12C0,108,11.52,122.26,36.86,122.26Z"/><path id="shade-61" class="cls-1" d="M133.63,120.82l18.72-15.55c1.3-1.15,2-2.74,2-5.33v-3h4v18.72c0,4.46,2.16,6.62,7.06,6.62H187.2a6.35,6.35,0,0,0,4.46-1.44l18.72-15.55c1.3-1.15,2-2.74,2-5.33v-38c0-5.9-1.73-13.25-5.76-23.62L194.11,5.62c-1.3-3.89-4-5.62-8.5-5.62H146.88c-2.74,0-4.75.58-6.34,2L122.11,17.42l-.14.14a9.5,9.5,0,0,0-2.45,3.89L107.14,54c-4,10.37-5.76,17.71-5.76,23.62v38c0,4.61,2,6.62,6.62,6.62h21.17A6.35,6.35,0,0,0,133.63,120.82Z"/><path id="shade-62" class="cls-1" d="M215.28,122.26h55.3c9.94,0,17.14-2,21.89-6L311,100.51c5-4.18,7.49-10.37,7.49-19V68.26c0-13.54-5-20.88-15.55-23.18l.43-.29c3.6-2.88,5.47-7.63,5.47-14.4V23.47C308.88,7.63,300,0,279.79,0H233.86a7,7,0,0,0-4.61,1.3L210.67,17c-1.3,1.15-2,2.74-2,5.33v93.31C208.66,120.24,210.67,122.26,215.28,122.26Z"/><path id="shade-72" class="cls-1" d="M365,105.26c1.3-1.15,2-2.74,2-5.33V88.85h.14c3,0,4,1.58,4,4.75v22c0,4.61,2,6.62,6.62,6.62h22.32a6.35,6.35,0,0,0,4.46-1.44l18.72-15.55c1.3-1.15,2-2.74,2-5.33V69.41c0-11.38-5.9-19-15-21.6h.14c3.89-3.31,5.47-8.64,5.47-15.7V25.49C416,10.51,409.1,0,386.21,0h-48a7,7,0,0,0-4.61,1.3L315.07,17c-1.3,1.15-2,2.74-2,5.33v93.31c0,4.61,2,6.62,6.62,6.62h22.18a6.35,6.35,0,0,0,4.46-1.44Z"/><path id="shade-69" class="cls-1" d="M485.71,122.26a6.35,6.35,0,0,0,4.46-1.44l18.72-15.55c1.3-1.15,2-2.74,2-5.33V82.8c0-4.61-2-6.62-6.62-6.62H491.76V43.78l17.14-14.4c1.3-1.15,2-2.74,2-5.33V6.62c0-4.61-2-6.62-6.62-6.62H442.94a7,7,0,0,0-4.61,1.3L419.76,17c-1.3,1.15-2,2.74-2,5.33V39.74c0,4.61,2,6.62,6.62,6.62h12.82V78.48L419.76,93.17c-1.3,1.15-2,2.74-2,5.33v17.14c0,4.61,2,6.62,6.62,6.62Z"/><path id="shade-65" class="cls-1" d="M580.61,122.26a6.35,6.35,0,0,0,4.46-1.44l18.72-15.55c1.3-1.15,2-2.74,2-5.33V83.09c0-4.61-2-6.62-6.62-6.62H579.31l12.82-10.8c1.3-1.15,2-2.74,2-5.33V44.93c0-3-.86-4.9-2.74-5.9L603.79,28.8c1.3-1.15,2-2.74,2-5.33V6.62c0-4.61-2-6.62-6.62-6.62H532.37a7,7,0,0,0-4.61,1.3L509.18,17c-1.3,1.15-2,2.74-2,5.33v93.31c0,4.61,2,6.62,6.62,6.62Z"/><path id="shade-6c" class="cls-1" d="M681.26,122.26a6.35,6.35,0,0,0,4.46-1.44l18.72-15.55c1.3-1.15,2-2.74,2-5.33V54.58c0-4.61-2-6.62-6.62-6.62H679a7,7,0,0,0-4.61,1.3l-18.58,15.7-.29.29V6.62c0-4.61-2-6.62-6.62-6.62H626.54a7,7,0,0,0-4.61,1.3L603.36,17c-1.3,1.15-2,2.74-2,5.33v93.31c0,4.61,2,6.62,6.62,6.62Z"/><path id="regular-67" class="cls-2" d="M100.8,105.12c3.6,0,5.18-1.58,5.18-5.18V55.44c0-3.6-1.58-5.18-5.18-5.18H78.48c-3.6,0-5.18,1.58-5.18,5.18V77.9h-14c-4.46,0-6.62-2.16-6.62-7.06V36.43c0-4.9,2.74-7.2,8.78-7.2h30c3.6,0,5.18-1.58,5.18-5.18V6.62c0-3.6-1.58-5.18-5.18-5.18h-36C31.25,1.44,20,10.8,20,30.82V75.74c0,20,11.23,29.38,35.42,29.38Z"/><path id="regular-61" class="cls-2" d="M161.14,31.68c.72-1.73,1.58-2.45,2.74-2.45h3.6c1.15,0,2,.72,2.74,2.45L177,53.57H154.37Zm-8.21,68.26V79.78h25.49V99.94c0,3.6,1.73,5.18,5.62,5.18h21.74c3.6,0,5.18-1.58,5.18-5.18v-38c0-5.76-1.73-13-5.62-23L192.82,6.19c-1.15-3.31-3.46-4.75-7.2-4.75H146.88c-3.89,0-6.19,1.44-7.34,4.75L127,38.88c-3.89,10.08-5.62,17.28-5.62,23v38c0,3.6,1.58,5.18,5.18,5.18h21.17C151.34,105.12,152.93,103.54,152.93,99.94Z"/><path id="regular-62" class="cls-2" d="M289.15,105.12c19.15,0,27.94-7.49,27.94-23.62V68.26c0-14.11-5.76-21.17-18.14-22.32,5.76-2.45,8.5-7.49,8.5-15.55V23.47c0-15.12-8.78-22-27.65-22H233.86c-3.6,0-5.18,1.58-5.18,5.18V99.94c0,3.6,1.58,5.18,5.18,5.18Zm-28.08-79.2h12.24c3.74,0,5.47,1.87,5.47,5.76v4c0,3.89-1.73,5.76-5.47,5.76H261.07Zm0,37.73h18.72c3.74,0,5.47,1.73,5.47,5.62v5.62c0,3.89-1.73,5.76-5.47,5.76H261.07Z"/><path id="regular-72" class="cls-2" d="M365.62,27.36h10.8c5,0,6.34,2.88,6.34,6.77V39c0,3.89-1.3,6.77-6.34,6.77h-10.8Zm-5.18,77.76c3.6,0,5.18-1.58,5.18-5.18V71.71h20.16c4,0,5.47,1.87,5.47,6.19v22c0,3.6,1.58,5.18,5.18,5.18h22.32c3.6,0,5.18-1.58,5.18-5.18V69.41c0-12.1-6.91-19.73-17.42-20.88,6-2.59,8.06-8.35,8.06-16.42V25.49c0-14.26-6.77-24-28.37-24h-48c-3.6,0-5.18,1.58-5.18,5.18V99.94c0,3.6,1.58,5.18,5.18,5.18Z"/><path id="regular-69" class="cls-2" d="M442.94,105.12h61.34c3.6,0,5.18-1.58,5.18-5.18V82.8c0-3.6-1.58-5.18-5.18-5.18h-14V29.23h14c3.6,0,5.18-1.58,5.18-5.18V6.62c0-3.6-1.58-5.18-5.18-5.18H442.94c-3.6,0-5.18,1.58-5.18,5.18V24c0,3.6,1.58,5.18,5.18,5.18H457.2V77.62H442.94c-3.6,0-5.18,1.58-5.18,5.18V99.94C437.76,103.54,439.34,105.12,442.94,105.12Z"/><path id="regular-65" class="cls-2" d="M599.18,105.12c3.6,0,5.18-1.58,5.18-5.18V83.09c0-3.6-1.58-5.18-5.18-5.18H559.44V65.52h28.08c3.6,0,5.18-1.58,5.18-5.18V44.93c0-3.6-1.58-5.18-5.18-5.18H559.44V28.66h39.74c3.6,0,5.18-1.58,5.18-5.18V6.62c0-3.6-1.58-5.18-5.18-5.18H532.37c-3.6,0-5.18,1.58-5.18,5.18V99.94c0,3.6,1.58,5.18,5.18,5.18Z"/><path id="regular-6c" class="cls-2" d="M699.84,105.12c3.6,0,5.18-1.58,5.18-5.18V54.58c0-3.6-1.58-5.18-5.18-5.18H679c-3.6,0-5.18,1.58-5.18,5.18V77.9H654V6.62c0-3.6-1.58-5.18-5.18-5.18H626.54c-3.6,0-5.18,1.58-5.18,5.18V99.94c0,3.6,1.58,5.18,5.18,5.18Z"/><path id="inline-67" class="cls-1" d="M61.63,92.16H90.29V63.22H88.85v27.5H61.63c-19.44,0-24.48-4.61-24.48-17.14V33.26c0-12.82,4.61-17.42,21.6-17.42H83.66V14.4H58.75c-18.43,0-23,5.18-23,18.86V73.58C35.71,87,40.46,92.16,61.63,92.16Z"/><path id="inline-61" class="cls-1" d="M138.1,61.49a37.74,37.74,0,0,1,2.3-13.39l9.22-23.62c1.87-4.9,3.46-8.64,9.22-8.64h14.11c5.33,0,6.91,3.74,9.07,8.78L192,48.1a37.74,37.74,0,0,1,2.3,13.39V66H138.1Zm56.16,30.67h1.44V61.49a38.36,38.36,0,0,0-2.45-14L183.31,24c-2.3-5.62-4-9.65-10.37-9.65H158.83c-6.62,0-8.35,4.18-10.51,9.5L139.1,47.52a38.36,38.36,0,0,0-2.45,14V92.16h1.44V67.39h56.16Z"/><path id="inline-62" class="cls-1" d="M244.66,92.16h38.74c16.13,0,18.86-5.9,18.86-14.4V68.54c0-9.5-2.74-16.56-18.72-16.56,8.21-2.16,9.22-7.34,9.22-13.1V29.66c0-8.35-2.88-15.26-18.86-15.26H244.66Zm29.23-76.32c14.54,0,17.42,6,17.42,13.82v9.22c0,6.91-1.58,13.1-17.42,13.1H246.1V15.84Zm9.65,37.58c14.54,0,17.28,6.48,17.28,15.12v9.22c0,7.92-3,13-17.42,13H246.1V53.42Z"/><path id="inline-72" class="cls-1" d="M381.46,15.84c10.22,0,15,6,15,15V40.9c0,10.66-3,16.56-15,16.56H350.06V15.84ZM350.06,92.16V58.75h40.75c10.94,0,16,4.61,16,14.11v19.3h1.44V72.86c0-10.08-5.62-15.41-17.42-15.41h-1.58c6.91-2.16,8.64-7.92,8.64-16.7V30.82c0-9.5-5.18-16.42-16.42-16.42H348.62V92.16Z"/><path id="inline-69" class="cls-1" d="M496.51,92.16V90.72h-22V15.84h22V14.4H450.72v1.44H473V90.72H450.72v1.44Z"/><path id="inline-65" class="cls-1" d="M591.41,90.72H544.32V53.42h35.42V52H544.32V15.84h47.09V14.4H542.88V92.16h48.53Z"/><path id="inline-6c" class="cls-1" d="M637.06,92.16h53V62.35h-1.44V90.72H638.5V14.4h-1.44Z"/></g></g></svg>