<svg xmlns="http://www.w3.org/2000/svg" viewBox="0 0 900 254.38"><defs><style>.cls-1{fill:#781404;}.cls-2{fill:#fff;}.cls-3{fill:#dd9d5b;}</style></defs><title>Asset 2</title><g id="Layer_2" data-name="Layer 2"><g id="Layer_1-2" data-name="Layer 1"><path id="shade-6c" class="cls-1" d="M79.92,252.22a6.35,6.35,0,0,0,4.46-1.44l18.72-15.55c1.3-1.15,2-2.74,2-5.33V184.54c0-4.61-2-6.62-6.62-6.62H77.62a7,7,0,0,0-4.61,1.3L54.43,194.9l-.29.29V136.58c0-4.61-2-6.62-6.62-6.62H25.2a7,7,0,0,0-4.61,1.3L2,147c-1.3,1.15-2,2.74-2,5.33v93.31c0,4.61,2,6.62,6.62,6.62Z"/><path id="shade-65" class="cls-1" d="M173.52,252.22a6.35,6.35,0,0,0,4.46-1.44l18.72-15.55c1.3-1.15,2-2.74,2-5.33V213c0-4.61-2-6.62-6.62-6.62H172.22L185,195.62c1.3-1.15,2-2.74,2-5.33V174.89c0-3-.86-4.9-2.74-5.9l12.38-10.22c1.3-1.15,2-2.74,2-5.33V136.58c0-4.61-2-6.62-6.62-6.62H125.28a7,7,0,0,0-4.61,1.3L102.1,147c-1.3,1.15-2,2.74-2,5.33v93.31c0,4.61,2,6.62,6.62,6.62Z"/><path id="shade-74" class="cls-1" d="M244.66,252.22a6.35,6.35,0,0,0,4.46-1.44l18.72-15.55c1.3-1.15,2-2.74,2-5.33V176.33H271a6.35,6.35,0,0,0,4.46-1.44l18.72-15.55c1.3-1.15,2-2.74,2-5.33V136.58c0-4.61-2-6.62-6.62-6.62h-76a7,7,0,0,0-4.61,1.3L190.37,147c-1.3,1.15-2,2.74-2,5.33V169.7c0,4.61,2,6.62,6.62,6.62H214.7v69.26c0,4.61,2,6.62,6.62,6.62Z"/><path id="shade-7a" class="cls-1" d="M362,252.22a6.35,6.35,0,0,0,4.46-1.44l18.72-15.55c1.3-1.15,2-2.74,2-5.33V212.76c0-4.61-2-6.62-6.62-6.62H349.2L380.74,168a12.92,12.92,0,0,0,3.89-9.94V136.58c0-4.61-2-6.62-6.62-6.62H311.76a7,7,0,0,0-4.61,1.3L288.58,147c-1.3,1.15-2,2.74-2,5.33V169.7c0,4.61,2,6.62,6.62,6.62H321L287.86,216.5A12.81,12.81,0,0,0,284,226.3v19.3c0,4.61,2,6.62,6.62,6.62Z"/><path id="shade-67" class="cls-1" d="M463,252.22a6.35,6.35,0,0,0,4.46-1.44l18.72-15.55c1.3-1.15,2-2.74,2-5.33V185.4c0-4.61-2-6.62-6.62-6.62H459.22a7,7,0,0,0-4.61,1.3L436,195.77a9.32,9.32,0,0,0-1.15,1.3V176.33H453.6a6.35,6.35,0,0,0,4.46-1.44l18.72-15.55c1.3-1.15,2-2.74,2-5.33V136.58c0-4.61-2-6.62-6.62-6.62h-36c-12.53,0-21.74,2.45-27.79,7.49l-18.58,15.7c-6,5.18-9.07,12.67-9.07,23.33v40.61c0,20.88,11.52,35.14,36.86,35.14Z"/><path id="shade-65-2" data-name="shade-65" class="cls-1" d="M557.71,252.22a6.35,6.35,0,0,0,4.46-1.44l18.72-15.55c1.3-1.15,2-2.74,2-5.33V213c0-4.61-2-6.62-6.62-6.62H556.42l12.82-10.8c1.3-1.15,2-2.74,2-5.33V174.89c0-3-.86-4.9-2.74-5.9l12.38-10.22c1.3-1.15,2-2.74,2-5.33V136.58c0-4.61-2-6.62-6.62-6.62H509.47a7,7,0,0,0-4.61,1.3L486.29,147c-1.3,1.15-2,2.74-2,5.33v93.31c0,4.61,2,6.62,6.62,6.62Z"/><path id="shade-61" class="cls-1" d="M608.54,250.78l18.72-15.55c1.3-1.15,2-2.74,2-5.33v-3h4v18.72c0,4.46,2.16,6.62,7.06,6.62h21.74a6.35,6.35,0,0,0,4.46-1.44l18.72-15.55c1.3-1.15,2-2.74,2-5.33v-38c0-5.9-1.73-13.25-5.76-23.62L669,135.58c-1.3-3.89-4-5.62-8.5-5.62H621.79c-2.74,0-4.75.58-6.34,2L597,147.38l-.14.14a9.5,9.5,0,0,0-2.45,3.89L582,184c-4,10.37-5.76,17.71-5.76,23.62v38c0,4.61,2,6.62,6.62,6.62h21.17A6.35,6.35,0,0,0,608.54,250.78Z"/><path id="shade-75" class="cls-1" d="M728.78,254.38c19,0,30.38-3.31,37.15-9.07l18.72-15.55c6.48-5.47,8.64-13,8.64-21.89V136.58c0-4.61-2-6.62-6.62-6.62H764.78a6.78,6.78,0,0,0-4.61,1.3L741.46,147l-.14.14c-1.15,1-1.73,2.59-1.73,5.18v54c-1.87-.86-2.3-2.3-2.3-4V136.58c0-4.61-2-6.62-6.62-6.62H708a7,7,0,0,0-4.61,1.3L684.86,147c-1.3,1.15-2,2.74-2,5.33v67C682.85,237.38,691.34,254.38,728.78,254.38Z"/><path id="shade-78" class="cls-1" d="M841.39,235.22c1.3-1.15,2-2.74,2-5.33v-6.34l1.87,2.59c1.15,1.73,1,3.46,1,5.18v14.26c0,4.61,2,6.62,6.62,6.62H874.8a6.35,6.35,0,0,0,4.46-1.44L898,235.22c1.3-1.15,2-2.74,2-5.33V214.49c0-9.36-1.15-12.38-5.76-18.58l-11.09-14.69,11.09-15c4.61-6.19,5.76-9.22,5.76-18.58V136.58c0-4.61-2-6.62-6.62-6.62H871.49a7,7,0,0,0-4.61,1.3L848.3,147c-1.3,1.15-2,2.74-2,5.33V154l-1.58-2.3c-1.15-1.58-1-3.46-1-5.18v-9.94c0-4.61-2-6.62-6.62-6.62H814.9a7,7,0,0,0-4.61,1.3L791.71,147c-1.3,1.15-2,2.74-2,5.33v11.09c0,9.36,1.15,12.38,5.76,18.58l11.09,14.83-11.09,14.83c-4.61,6.19-5.76,9.22-5.76,18.58v15.41c0,4.61,2,6.62,6.62,6.62h21.89a6.35,6.35,0,0,0,4.46-1.44Z"/><path id="regular-6c" class="cls-2" d="M98.5,235.08c3.6,0,5.18-1.58,5.18-5.18V184.54c0-3.6-1.58-5.18-5.18-5.18H77.62c-3.6,0-5.18,1.58-5.18,5.18v23.33H52.7V136.58c0-3.6-1.58-5.18-5.18-5.18H25.2c-3.6,0-5.18,1.58-5.18,5.18V229.9c0,3.6,1.58,5.18,5.18,5.18Z"/><path id="regular-65" class="cls-2" d="M192.1,235.08c3.6,0,5.18-1.58,5.18-5.18V213c0-3.6-1.58-5.18-5.18-5.18H152.35V195.48h28.08c3.6,0,5.18-1.58,5.18-5.18V174.89c0-3.6-1.58-5.18-5.18-5.18H152.35V158.62H192.1c3.6,0,5.18-1.58,5.18-5.18V136.58c0-3.6-1.58-5.18-5.18-5.18H125.28c-3.6,0-5.18,1.58-5.18,5.18V229.9c0,3.6,1.58,5.18,5.18,5.18Z"/><path id="regular-74" class="cls-2" d="M263.23,235.08c3.6,0,5.18-1.58,5.18-5.18v-70.7h21.17c3.6,0,5.18-1.58,5.18-5.18V136.58c0-3.6-1.58-5.18-5.18-5.18h-76c-3.6,0-5.18,1.58-5.18,5.18V154c0,3.6,1.58,5.18,5.18,5.18h21.17v70.7c0,3.6,1.58,5.18,5.18,5.18Z"/><path id="regular-7a" class="cls-2" d="M380.59,235.08c3.6,0,5.18-1.58,5.18-5.18V212.76c0-3.6-1.58-5.18-5.18-5.18H346.18l33.41-40.46a11.73,11.73,0,0,0,3.6-9.07V136.58c0-3.6-1.58-5.18-5.18-5.18H311.76c-3.6,0-5.18,1.58-5.18,5.18V154c0,3.6,1.58,5.18,5.18,5.18h30.82l-35,42.48a11.63,11.63,0,0,0-3.6,8.93v19.3c0,3.6,1.58,5.18,5.18,5.18Z"/><path id="regular-67" class="cls-2" d="M481.54,235.08c3.6,0,5.18-1.58,5.18-5.18V185.4c0-3.6-1.58-5.18-5.18-5.18H459.22c-3.6,0-5.18,1.58-5.18,5.18v22.46h-14c-4.46,0-6.62-2.16-6.62-7.06V166.39c0-4.9,2.74-7.2,8.78-7.2h30c3.6,0,5.18-1.58,5.18-5.18V136.58c0-3.6-1.58-5.18-5.18-5.18h-36c-24.19,0-35.42,9.36-35.42,29.38V205.7c0,20,11.23,29.38,35.42,29.38Z"/><path id="regular-65-2" data-name="regular-65" class="cls-2" d="M576.29,235.08c3.6,0,5.18-1.58,5.18-5.18V213c0-3.6-1.58-5.18-5.18-5.18H536.54V195.48h28.08c3.6,0,5.18-1.58,5.18-5.18V174.89c0-3.6-1.58-5.18-5.18-5.18H536.54V158.62h39.74c3.6,0,5.18-1.58,5.18-5.18V136.58c0-3.6-1.58-5.18-5.18-5.18H509.47c-3.6,0-5.18,1.58-5.18,5.18V229.9c0,3.6,1.58,5.18,5.18,5.18Z"/><path id="regular-61" class="cls-2" d="M636,161.64c.72-1.73,1.58-2.45,2.74-2.45h3.6c1.15,0,2,.72,2.74,2.45l6.77,21.89H629.28Zm-8.21,68.26V209.74h25.49V229.9c0,3.6,1.73,5.18,5.62,5.18h21.74c3.6,0,5.18-1.58,5.18-5.18v-38c0-5.76-1.73-13-5.62-23l-12.53-32.69c-1.15-3.31-3.46-4.75-7.2-4.75H621.79c-3.89,0-6.19,1.44-7.34,4.75l-12.53,32.69c-3.89,10.08-5.62,17.28-5.62,23v38c0,3.6,1.58,5.18,5.18,5.18h21.17C626.26,235.08,627.84,233.5,627.84,229.9Z"/><path id="regular-75" class="cls-2" d="M791.86,207.86V136.58c0-3.6-1.58-5.18-5.18-5.18H764.78c-3.74,0-5.18,1.58-5.18,5.18v65.66c0,3.89-1.73,6.77-12,6.77s-11.81-2.88-11.81-6.77V136.58c0-3.6-1.58-5.18-5.18-5.18H708c-3.6,0-5.18,1.58-5.18,5.18v71.28c0,17.57,8.78,29.38,44.5,29.38S791.86,225.43,791.86,207.86Z"/><path id="regular-78" class="cls-2" d="M842,229.9V215.64c0-2-.14-4,1.3-6l6.48-9.07c1.15-1.73,1.87-2.45,3.46-2.45h2c1.58,0,2.3.72,3.46,2.45l6.34,9.07c1.44,2,1.3,4,1.3,6V229.9c0,3.6,1.58,5.18,5.18,5.18h21.89c3.6,0,5.18-1.58,5.18-5.18V214.49c0-8.93-1-11.81-5.47-17.71l-11.66-15.55,11.66-15.84c4.32-5.9,5.47-8.78,5.47-17.71V136.58c0-3.6-1.58-5.18-5.18-5.18H871.49c-3.6,0-5.18,1.58-5.18,5.18v9.94c0,2,0,4.18-1.3,6l-6.48,9.07c-1.15,1.58-1.87,2.45-3.46,2.45h-1.73c-1.58,0-2.45-.86-3.46-2.45l-6.34-9.07c-1.3-1.87-1.3-4-1.3-6v-9.94c0-3.6-1.58-5.18-5.18-5.18H814.9c-3.6,0-5.18,1.58-5.18,5.18v11.09c0,8.93,1,11.81,5.47,17.71l11.66,15.7-11.66,15.7c-4.32,5.9-5.47,8.78-5.47,17.71V229.9c0,3.6,1.58,5.18,5.18,5.18h21.89C840.38,235.08,842,233.5,842,229.9Z"/><path id="inline-6c" class="cls-3" d="M35.71,222.12h53V192.31H87.26v28.37H37.15V144.36H35.71Z"/><path id="inline-65" class="cls-3" d="M184.32,220.68H137.23v-37.3h35.42v-1.44H137.23V145.8h47.09v-1.44H135.79v77.76h48.53Z"/><path id="inline-74" class="cls-3" d="M250.85,222.12h1.44V145.8h29.52v-1.44H221.33v1.44h29.52Z"/><path id="inline-7a" class="cls-3" d="M365.47,156.74c1.44-1.73,2.45-3.17,2.45-5.33v-2.3c0-3.31-1.3-4.75-4.46-4.75H319.54v1.44h43.92c1.58,0,3,.58,3,3.31v2c0,1.87-.58,2.74-2,4.46l-42.19,54.14c-1.44,1.73-2.45,3.17-2.45,5.33v2.3c0,3.31,1.3,4.75,4.46,4.75h48.53v-1.44H324.29c-1.58,0-3-.58-3-3.31v-2c0-1.87.58-2.74,2-4.46Z"/><path id="inline-67" class="cls-3" d="M442.37,222.12H471V193.18h-1.44v27.5H442.37c-19.44,0-24.48-4.61-24.48-17.14V163.22c0-12.82,4.61-17.42,21.6-17.42H464.4v-1.44H439.49c-18.43,0-23,5.18-23,18.86v40.32C416.45,216.94,421.2,222.12,442.37,222.12Z"/><path id="inline-65-2" data-name="inline-65" class="cls-3" d="M568.51,220.68H521.42v-37.3h35.42v-1.44H521.42V145.8h47.09v-1.44H520v77.76h48.53Z"/><path id="inline-61" class="cls-3" d="M613,191.45a37.74,37.74,0,0,1,2.3-13.39l9.22-23.62c1.87-4.9,3.46-8.64,9.22-8.64h14.11c5.33,0,6.91,3.74,9.07,8.78l9.94,23.47a37.74,37.74,0,0,1,2.3,13.39v4.46H613Zm56.16,30.67h1.44V191.45a38.36,38.36,0,0,0-2.45-14L658.22,154c-2.3-5.62-4-9.65-10.37-9.65H633.74c-6.62,0-8.35,4.18-10.51,9.5L614,177.48a38.36,38.36,0,0,0-2.45,14v30.67H613V197.35h56.16Z"/><path id="inline-75" class="cls-3" d="M718.7,144.36v60c0,11.66,6.19,19.44,28.8,19.44s28.94-7.78,28.94-19.44v-60H775v60c0,10.8-6,18-27.5,18s-27.36-7.2-27.36-18v-60Z"/><path id="inline-78" class="cls-3" d="M826.56,215.64c0-4,.14-7.92,2-10.51l17-23.33h17.28l16.85,23.33c2,2.74,2,6.48,2,10.51v6.48h1.44v-6.48c0-4.18,0-8.06-2.16-11.09l-17-23.33,17-23.62c2.16-3,2.16-6.91,2.16-11.09v-2.16h-1.44v2.16c0,4-.14,7.78-2,10.51L863,180.36H845.86L828.58,157c-2-2.74-2-6.48-2-10.51v-2.16h-1.44v2.16c0,4.18,0,8.06,2.16,11.09l17.28,23.33-17.28,23.62c-2.3,3.17-2.16,6.91-2.16,11.09v6.48h1.44Z"/><path id="shade-70" class="cls-1" d="M167.9,124.42a6.35,6.35,0,0,0,4.46-1.44l18.72-15.55c1.3-1.15,2-2.74,2-5.33V95.18C204,94.75,211.54,92,216.29,88L235,72.43c6.34-5.33,8.64-13.1,8.64-22.32V31.68c0-17.42-7.92-29.52-35.42-29.52H164.16a7,7,0,0,0-4.61,1.3L141,19.15c-1.3,1.15-2,2.74-2,5.33v93.31c0,4.61,2,6.62,6.62,6.62Z"/><path id="shade-72" class="cls-1" d="M289.15,107.42c1.3-1.15,2-2.74,2-5.33V91h.14c3,0,4,1.58,4,4.75v22c0,4.61,2,6.62,6.62,6.62h22.32a6.35,6.35,0,0,0,4.46-1.44l18.72-15.55c1.3-1.15,2-2.74,2-5.33V71.57c0-11.38-5.9-19-15-21.6h.14c3.89-3.31,5.47-8.64,5.47-15.7V27.65c0-15-6.91-25.49-29.81-25.49h-48a7,7,0,0,0-4.61,1.3l-18.58,15.7c-1.3,1.15-2,2.74-2,5.33v93.31c0,4.61,2,6.62,6.62,6.62H266a6.35,6.35,0,0,0,4.46-1.44Z"/><path id="shade-6f" class="cls-1" d="M425.52,117.5,444.1,102c6.48-5.47,8.64-13,8.64-21.89V31c0-18.14-8.35-31-46.08-31C387.36,0,376,3.31,369.22,9.07L350.5,24.62c-6.48,5.47-8.64,13.1-8.64,22V91.44c0,18.14,8.5,35.14,46.22,35.14C407.23,126.58,418.75,123.26,425.52,117.5ZM396,74.88V47.66a4,4,0,0,1,2.74,4.18V79.2A4.23,4.23,0,0,1,396,74.88Z"/><path id="shade-6e" class="cls-1" d="M501,107.42c1.3-1.15,2-2.74,2-5.33V96.77l3.17,3.89v17.14c0,4.61,2,6.62,6.62,6.62h21.6a6.35,6.35,0,0,0,4.46-1.44l18.72-15.55c1.3-1.15,2-2.74,2-5.33V8.78c0-4.61-2-6.62-6.62-6.62h-21.6a7,7,0,0,0-4.61,1.3L509.33,18,499.39,6.48a11.53,11.53,0,0,0-9.65-4.32h-15a7,7,0,0,0-4.61,1.3l-18.58,15.7c-1.3,1.15-2,2.74-2,5.33v93.31c0,4.61,2,6.62,6.62,6.62h21.6a6.35,6.35,0,0,0,4.46-1.44Z"/><path id="shade-74-2" data-name="shade-74" class="cls-1" d="M608.4,124.42a6.35,6.35,0,0,0,4.46-1.44l18.72-15.55c1.3-1.15,2-2.74,2-5.33V48.53h1.15a6.35,6.35,0,0,0,4.46-1.44l18.72-15.55c1.3-1.15,2-2.74,2-5.33V8.78c0-4.61-2-6.62-6.62-6.62h-76a7,7,0,0,0-4.61,1.3l-18.58,15.7c-1.3,1.15-2,2.74-2,5.33V41.9c0,4.61,2,6.62,6.62,6.62h19.73v69.26c0,4.61,2,6.62,6.62,6.62Z"/><path id="shade-6f-2" data-name="shade-6f" class="cls-1" d="M733.82,117.5,752.4,102c6.48-5.47,8.64-13,8.64-21.89V31C761,12.82,752.69,0,715,0c-19.3,0-30.67,3.31-37.44,9.07L658.8,24.62c-6.48,5.47-8.64,13.1-8.64,22V91.44c0,18.14,8.5,35.14,46.22,35.14C715.54,126.58,727.06,123.26,733.82,117.5ZM704.3,74.88V47.66A4,4,0,0,1,707,51.84V79.2A4.23,4.23,0,0,1,704.3,74.88Z"/><path id="regular-70" class="cls-2" d="M186.48,107.28c3.6,0,5.18-1.58,5.18-5.18V78.19h16.56c26.21,0,34-11.38,34-28.08V31.68c0-16.7-7.78-28.08-34-28.08H164.16c-3.6,0-5.18,1.58-5.18,5.18V102.1c0,3.6,1.58,5.18,5.18,5.18Zm4.9-76.75h13c5.62,0,6.77,3.31,6.77,7.06v7.63c0,3.74-1.15,7.06-6.77,7.06h-13Z"/><path id="regular-72" class="cls-2" d="M289.73,29.52h10.8c5,0,6.34,2.88,6.34,6.77v4.9c0,3.89-1.3,6.77-6.34,6.77h-10.8Zm-5.18,77.76c3.6,0,5.18-1.58,5.18-5.18V73.87h20.16c4,0,5.47,1.87,5.47,6.19v22c0,3.6,1.58,5.18,5.18,5.18h22.32c3.6,0,5.18-1.58,5.18-5.18V71.57c0-12.1-6.91-19.73-17.42-20.88,6-2.59,8.06-8.35,8.06-16.42V27.65c0-14.26-6.77-24-28.37-24h-48c-3.6,0-5.18,1.58-5.18,5.18V102.1c0,3.6,1.58,5.18,5.18,5.18Z"/><path id="regular-6f" class="cls-2" d="M451.3,80.06V31c0-17.57-8.64-29.52-44.64-29.52s-44.78,12-44.78,29.52v49.1c0,17.57,8.78,29.38,44.78,29.38S451.3,97.63,451.3,80.06Zm-56.74-5.18V36.14c0-3.74,1.73-6.62,12.1-6.62s12.1,2.88,12.1,6.62V74.88c0,3.89-1.58,6.77-12.1,6.77S394.56,78.77,394.56,74.88Z"/><path id="regular-6e" class="cls-2" d="M496.37,107.28c3.6,0,5.18-1.58,5.18-5.18V54.58l24.62,29.81V102.1c0,3.6,1.58,5.18,5.18,5.18H553c3.6,0,5.18-1.58,5.18-5.18V8.78c0-3.6-1.58-5.18-5.18-5.18h-21.6c-3.6,0-5.18,1.58-5.18,5.18V39.46l-27.94-32a9.81,9.81,0,0,0-8.5-3.89h-15c-3.6,0-5.18,1.58-5.18,5.18V102.1c0,3.6,1.58,5.18,5.18,5.18Z"/><path id="regular-74-2" data-name="regular-74" class="cls-2" d="M627,107.28c3.6,0,5.18-1.58,5.18-5.18V31.39h21.17c3.6,0,5.18-1.58,5.18-5.18V8.78c0-3.6-1.58-5.18-5.18-5.18h-76c-3.6,0-5.18,1.58-5.18,5.18V26.21c0,3.6,1.58,5.18,5.18,5.18h21.17v70.7c0,3.6,1.58,5.18,5.18,5.18Z"/><path id="regular-6f-2" data-name="regular-6f" class="cls-2" d="M759.6,80.06V31C759.6,13.39,751,1.44,715,1.44s-44.78,12-44.78,29.52v49.1c0,17.57,8.78,29.38,44.78,29.38S759.6,97.63,759.6,80.06Zm-56.74-5.18V36.14c0-3.74,1.73-6.62,12.1-6.62s12.1,2.88,12.1,6.62V74.88c0,3.89-1.58,6.77-12.1,6.77S702.86,78.77,702.86,74.88Z"/><path id="inline-70" class="cls-3" d="M206.21,66c18.14,0,21.6-7.92,21.6-19.15V36.14c0-11.23-3.46-19.58-21.6-19.58H175.1V94.32h1.44V66Zm-29.66-1.44V18h29.66c17,0,20.16,7.78,20.16,18.14V46.8c0,10.37-3.17,17.71-20.16,17.71Z"/><path id="inline-72" class="cls-3" d="M305.57,18c10.22,0,15,6,15,15V43.06c0,10.66-3,16.56-15,16.56H274.18V18ZM274.18,94.32V60.91h40.75c10.94,0,16,4.61,16,14.11v19.3h1.44V75c0-10.08-5.62-15.41-17.42-15.41h-1.58c6.91-2.16,8.64-7.92,8.64-16.7V33c0-9.5-5.18-16.42-16.42-16.42H272.74V94.32Z"/><path id="inline-6f" class="cls-3" d="M435.6,76.75V34.27c0-11.66-6.62-19.44-29.23-19.44s-28.94,7.78-28.94,19.44V76.75c0,11.66,6.34,19.44,28.94,19.44S435.6,88.42,435.6,76.75Zm-56.74,0V34.27c0-10.8,6-18,27.5-18s27.79,7.2,27.79,18V76.75c0,10.8-6.34,18-27.79,18S378.86,87.55,378.86,76.75Z"/><path id="inline-6e" class="cls-3" d="M488.59,17.71c-1-1-1.3-1.3-2.16-1.3a1.66,1.66,0,0,0-1.73,1.73V94.32h1.44V18.43c0-.14,0-.43.29-.43s.43.14.72.43l54.43,61.06V94.32H543V16.56h-1.44V77.33Z"/><path id="inline-74-2" data-name="inline-74" class="cls-3" d="M614.59,94.32H616V18h29.52V16.56H585.07V18h29.52Z"/><path id="inline-6f-2" data-name="inline-6f" class="cls-3" d="M743.9,76.75V34.27c0-11.66-6.62-19.44-29.23-19.44s-28.94,7.78-28.94,19.44V76.75c0,11.66,6.34,19.44,28.94,19.44S743.9,88.42,743.9,76.75Zm-56.74,0V34.27c0-10.8,6-18,27.5-18s27.79,7.2,27.79,18V76.75c0,10.8-6.34,18-27.79,18S687.17,87.55,687.17,76.75Z"/></g></g></svg>