<svg xmlns="http://www.w3.org/2000/svg" viewBox="0 0 900 253.58"><defs><style>.cls-1{fill:#781404;}.cls-2{fill:#fff;}.cls-3{fill:#dd9d5b;}</style></defs><title>logostacked</title><g id="Layer_2" data-name="Layer 2"><g id="Layer_1-2" data-name="Layer 1"><path id="shade-70" class="cls-1" d="M28.94,124.42A6.35,6.35,0,0,0,33.41,123l18.72-15.55c1.3-1.15,2-2.74,2-5.33V95.18C65.09,94.75,72.58,92,77.33,88L96,72.43c6.34-5.33,8.64-13.1,8.64-22.32V31.68c0-17.42-7.92-29.52-35.42-29.52H25.2a7,7,0,0,0-4.61,1.3L2,19.15c-1.3,1.15-2,2.74-2,5.33v93.31c0,4.61,2,6.62,6.62,6.62Z"/><path id="shade-72" class="cls-1" d="M150.19,107.42c1.3-1.15,2-2.74,2-5.33V91h.14c3,0,4,1.58,4,4.75v22c0,4.61,2,6.62,6.62,6.62h22.32a6.35,6.35,0,0,0,4.46-1.44l18.72-15.55c1.3-1.15,2-2.74,2-5.33V71.57c0-11.38-5.9-19-15-21.6h.14c3.89-3.31,5.47-8.64,5.47-15.7V27.65c0-15-6.91-25.49-29.81-25.49h-48a7,7,0,0,0-4.61,1.3l-18.58,15.7c-1.3,1.15-2,2.74-2,5.33v93.31c0,4.61,2,6.62,6.62,6.62H127a6.35,6.35,0,0,0,4.46-1.44Z"/><path id="shade-6f" class="cls-1" d="M286.56,117.5,305.14,102c6.48-5.47,8.64-13,8.64-21.89V31c0-18.14-8.35-31-46.08-31C248.4,0,237,3.31,230.26,9.07L211.54,24.62c-6.48,5.47-8.64,13.1-8.64,22V91.44c0,18.14,8.5,35.14,46.22,35.14C268.27,126.58,279.79,123.26,286.56,117.5ZM257,74.88V47.66a4,4,0,0,1,2.74,4.18V79.2A4.23,4.23,0,0,1,257,74.88Z"/><path id="shade-6e" class="cls-1" d="M362,107.42c1.3-1.15,2-2.74,2-5.33V96.77l3.17,3.89v17.14c0,4.61,2,6.62,6.62,6.62h21.6a6.35,6.35,0,0,0,4.46-1.44l18.72-15.55c1.3-1.15,2-2.74,2-5.33V8.78c0-4.61-2-6.62-6.62-6.62H392.4a7,7,0,0,0-4.61,1.3L370.37,18,360.43,6.48a11.53,11.53,0,0,0-9.65-4.32h-15a7,7,0,0,0-4.61,1.3l-18.58,15.7c-1.3,1.15-2,2.74-2,5.33v93.31c0,4.61,2,6.62,6.62,6.62h21.6A6.35,6.35,0,0,0,343.3,123Z"/><path id="shade-74" class="cls-1" d="M469.44,124.42A6.35,6.35,0,0,0,473.9,123l18.72-15.55c1.3-1.15,2-2.74,2-5.33V48.53h1.15a6.35,6.35,0,0,0,4.46-1.44L519,31.54c1.3-1.15,2-2.74,2-5.33V8.78c0-4.61-2-6.62-6.62-6.62h-76a7,7,0,0,0-4.61,1.3l-18.58,15.7c-1.3,1.15-2,2.74-2,5.33V41.9c0,4.61,2,6.62,6.62,6.62h19.73v69.26c0,4.61,2,6.62,6.62,6.62Z"/><path id="shade-6f-2" data-name="shade-6f" class="cls-1" d="M594.86,117.5,613.44,102c6.48-5.47,8.64-13,8.64-21.89V31c0-18.14-8.35-31-46.08-31-19.3,0-30.67,3.31-37.44,9.07L519.84,24.62c-6.48,5.47-8.64,13.1-8.64,22V91.44c0,18.14,8.5,35.14,46.22,35.14C576.58,126.58,588.1,123.26,594.86,117.5ZM565.34,74.88V47.66a4,4,0,0,1,2.74,4.18V79.2A4.23,4.23,0,0,1,565.34,74.88Z"/><path id="regular-70" class="cls-2" d="M47.52,107.28c3.6,0,5.18-1.58,5.18-5.18V78.19H69.26c26.21,0,34-11.38,34-28.08V31.68c0-16.7-7.78-28.08-34-28.08H25.2C21.6,3.6,20,5.18,20,8.78V102.1c0,3.6,1.58,5.18,5.18,5.18Zm4.9-76.75h13c5.62,0,6.77,3.31,6.77,7.06v7.63c0,3.74-1.15,7.06-6.77,7.06h-13Z"/><path id="regular-72" class="cls-2" d="M150.77,29.52h10.8c5,0,6.34,2.88,6.34,6.77v4.9c0,3.89-1.3,6.77-6.34,6.77h-10.8Zm-5.18,77.76c3.6,0,5.18-1.58,5.18-5.18V73.87h20.16c4,0,5.47,1.87,5.47,6.19v22c0,3.6,1.58,5.18,5.18,5.18H203.9c3.6,0,5.18-1.58,5.18-5.18V71.57c0-12.1-6.91-19.73-17.42-20.88,6-2.59,8.06-8.35,8.06-16.42V27.65c0-14.26-6.77-24-28.37-24h-48c-3.6,0-5.18,1.58-5.18,5.18V102.1c0,3.6,1.58,5.18,5.18,5.18Z"/><path id="regular-6f" class="cls-2" d="M312.34,80.06V31c0-17.57-8.64-29.52-44.64-29.52s-44.78,12-44.78,29.52v49.1c0,17.57,8.78,29.38,44.78,29.38S312.34,97.63,312.34,80.06ZM255.6,74.88V36.14c0-3.74,1.73-6.62,12.1-6.62s12.1,2.88,12.1,6.62V74.88c0,3.89-1.58,6.77-12.1,6.77S255.6,78.77,255.6,74.88Z"/><path id="regular-6e" class="cls-2" d="M357.41,107.28c3.6,0,5.18-1.58,5.18-5.18V54.58l24.62,29.81V102.1c0,3.6,1.58,5.18,5.18,5.18H414c3.6,0,5.18-1.58,5.18-5.18V8.78c0-3.6-1.58-5.18-5.18-5.18H392.4c-3.6,0-5.18,1.58-5.18,5.18V39.46l-27.94-32a9.81,9.81,0,0,0-8.5-3.89h-15c-3.6,0-5.18,1.58-5.18,5.18V102.1c0,3.6,1.58,5.18,5.18,5.18Z"/><path id="regular-74" class="cls-2" d="M488,107.28c3.6,0,5.18-1.58,5.18-5.18V31.39h21.17c3.6,0,5.18-1.58,5.18-5.18V8.78c0-3.6-1.58-5.18-5.18-5.18h-76c-3.6,0-5.18,1.58-5.18,5.18V26.21c0,3.6,1.58,5.18,5.18,5.18H459.5v70.7c0,3.6,1.58,5.18,5.18,5.18Z"/><path id="regular-6f-2" data-name="regular-6f" class="cls-2" d="M620.64,80.06V31C620.64,13.39,612,1.44,576,1.44s-44.78,12-44.78,29.52v49.1c0,17.57,8.78,29.38,44.78,29.38S620.64,97.63,620.64,80.06ZM563.9,74.88V36.14c0-3.74,1.73-6.62,12.1-6.62s12.1,2.88,12.1,6.62V74.88c0,3.89-1.58,6.77-12.1,6.77S563.9,78.77,563.9,74.88Z"/><path id="inline-70" class="cls-3" d="M67.25,66C85.39,66,88.85,58,88.85,46.8V36.14c0-11.23-3.46-19.58-21.6-19.58H36.14V94.32h1.44V66ZM37.58,64.51V18H67.25c17,0,20.16,7.78,20.16,18.14V46.8c0,10.37-3.17,17.71-20.16,17.71Z"/><path id="inline-72" class="cls-3" d="M166.61,18c10.22,0,15,6,15,15V43.06c0,10.66-3,16.56-15,16.56H135.22V18ZM135.22,94.32V60.91H176c10.94,0,16,4.61,16,14.11v19.3h1.44V75c0-10.08-5.62-15.41-17.42-15.41h-1.58c6.91-2.16,8.64-7.92,8.64-16.7V33c0-9.5-5.18-16.42-16.42-16.42H133.78V94.32Z"/><path id="inline-6f" class="cls-3" d="M296.64,76.75V34.27c0-11.66-6.62-19.44-29.23-19.44s-28.94,7.78-28.94,19.44V76.75c0,11.66,6.34,19.44,28.94,19.44S296.64,88.42,296.64,76.75Zm-56.74,0V34.27c0-10.8,6-18,27.5-18s27.79,7.2,27.79,18V76.75c0,10.8-6.34,18-27.79,18S239.9,87.55,239.9,76.75Z"/><path id="inline-6e" class="cls-3" d="M349.63,17.71c-1-1-1.3-1.3-2.16-1.3a1.66,1.66,0,0,0-1.73,1.73V94.32h1.44V18.43c0-.14,0-.43.29-.43s.43.14.72.43l54.43,61.06V94.32h1.44V16.56h-1.44V77.33Z"/><path id="inline-74" class="cls-3" d="M475.63,94.32h1.44V18h29.52V16.56H446.11V18h29.52Z"/><path id="inline-6f-2" data-name="inline-6f" class="cls-3" d="M604.94,76.75V34.27c0-11.66-6.62-19.44-29.23-19.44s-28.94,7.78-28.94,19.44V76.75c0,11.66,6.34,19.44,28.94,19.44S604.94,88.42,604.94,76.75Zm-56.74,0V34.27c0-10.8,6-18,27.5-18s27.79,7.2,27.79,18V76.75c0,10.8-6.34,18-27.79,18S548.21,87.55,548.21,76.75Z"/><path id="shade-6c" class="cls-1" d="M79.92,251.42A6.35,6.35,0,0,0,84.38,250l18.72-15.55c1.3-1.15,2-2.74,2-5.33V183.74c0-4.61-2-6.62-6.62-6.62H77.62a7,7,0,0,0-4.61,1.3L54.43,194.1l-.29.29V135.78c0-4.61-2-6.62-6.62-6.62H25.2a7,7,0,0,0-4.61,1.3L2,146.15c-1.3,1.15-2,2.74-2,5.33v93.31c0,4.61,2,6.62,6.62,6.62Z"/><path id="shade-65" class="cls-1" d="M173.52,251.42A6.35,6.35,0,0,0,178,250l18.72-15.55c1.3-1.15,2-2.74,2-5.33V212.25c0-4.61-2-6.62-6.62-6.62H172.22L185,194.82c1.3-1.15,2-2.74,2-5.33V174.09c0-3-.86-4.9-2.74-5.9L196.7,158c1.3-1.15,2-2.74,2-5.33V135.78c0-4.61-2-6.62-6.62-6.62H125.28a7,7,0,0,0-4.61,1.3l-18.58,15.7c-1.3,1.15-2,2.74-2,5.33v93.31c0,4.61,2,6.62,6.62,6.62Z"/><path id="shade-74-2" data-name="shade-74" class="cls-1" d="M244.66,251.42a6.35,6.35,0,0,0,4.46-1.44l18.72-15.55c1.3-1.15,2-2.74,2-5.33V175.53H271a6.35,6.35,0,0,0,4.46-1.44l18.72-15.55c1.3-1.15,2-2.74,2-5.33V135.78c0-4.61-2-6.62-6.62-6.62h-76a7,7,0,0,0-4.61,1.3l-18.58,15.7c-1.3,1.15-2,2.74-2,5.33V168.9c0,4.61,2,6.62,6.62,6.62H214.7v69.26c0,4.61,2,6.62,6.62,6.62Z"/><path id="shade-7a" class="cls-1" d="M362,251.42a6.35,6.35,0,0,0,4.46-1.44l18.72-15.55c1.3-1.15,2-2.74,2-5.33V212c0-4.61-2-6.62-6.62-6.62H349.2l31.54-38.16a12.92,12.92,0,0,0,3.89-9.94V135.78c0-4.61-2-6.62-6.62-6.62H311.76a7,7,0,0,0-4.61,1.3l-18.58,15.7c-1.3,1.15-2,2.74-2,5.33V168.9c0,4.61,2,6.62,6.62,6.62H321L287.86,215.7A12.81,12.81,0,0,0,284,225.5v19.3c0,4.61,2,6.62,6.62,6.62Z"/><path id="shade-67" class="cls-1" d="M463,251.42a6.35,6.35,0,0,0,4.46-1.44l18.72-15.55c1.3-1.15,2-2.74,2-5.33V184.6c0-4.61-2-6.62-6.62-6.62H459.22a7,7,0,0,0-4.61,1.3L436,195a9.32,9.32,0,0,0-1.15,1.3V175.53H453.6a6.35,6.35,0,0,0,4.46-1.44l18.72-15.55c1.3-1.15,2-2.74,2-5.33V135.78c0-4.61-2-6.62-6.62-6.62h-36c-12.53,0-21.74,2.45-27.79,7.49l-18.58,15.7c-6,5.18-9.07,12.67-9.07,23.33v40.61c0,20.88,11.52,35.14,36.86,35.14Z"/><path id="shade-65-2" data-name="shade-65" class="cls-1" d="M557.71,251.42a6.35,6.35,0,0,0,4.46-1.44l18.72-15.55c1.3-1.15,2-2.74,2-5.33V212.25c0-4.61-2-6.62-6.62-6.62H556.42l12.82-10.8c1.3-1.15,2-2.74,2-5.33V174.09c0-3-.86-4.9-2.74-5.9L580.9,158c1.3-1.15,2-2.74,2-5.33V135.78c0-4.61-2-6.62-6.62-6.62H509.47a7,7,0,0,0-4.61,1.3l-18.58,15.7c-1.3,1.15-2,2.74-2,5.33v93.31c0,4.61,2,6.62,6.62,6.62Z"/><path id="shade-61" class="cls-1" d="M608.54,250l18.72-15.55c1.3-1.15,2-2.74,2-5.33v-3h4v18.72c0,4.46,2.16,6.62,7.06,6.62h21.74a6.35,6.35,0,0,0,4.46-1.44l18.72-15.55c1.3-1.15,2-2.74,2-5.33v-38c0-5.9-1.73-13.25-5.76-23.62L669,134.78c-1.3-3.89-4-5.62-8.5-5.62H621.79c-2.74,0-4.75.58-6.34,2L597,146.58l-.14.14a9.5,9.5,0,0,0-2.45,3.89L582,183.16c-4,10.37-5.76,17.71-5.76,23.62v38c0,4.61,2,6.62,6.62,6.62h21.17A6.35,6.35,0,0,0,608.54,250Z"/><path id="shade-75" class="cls-1" d="M728.78,253.58c19,0,30.38-3.31,37.15-9.07L784.66,229c6.48-5.47,8.64-13,8.64-21.89V135.78c0-4.61-2-6.62-6.62-6.62H764.78a6.78,6.78,0,0,0-4.61,1.3l-18.72,15.7-.14.14c-1.15,1-1.73,2.59-1.73,5.18v54c-1.87-.86-2.3-2.3-2.3-4V135.78c0-4.61-2-6.62-6.62-6.62H708a7,7,0,0,0-4.61,1.3l-18.58,15.7c-1.3,1.15-2,2.74-2,5.33v67C682.85,236.58,691.34,253.58,728.78,253.58Z"/><path id="shade-78" class="cls-1" d="M841.39,234.42c1.3-1.15,2-2.74,2-5.33v-6.34l1.87,2.59c1.15,1.73,1,3.46,1,5.18v14.26c0,4.61,2,6.62,6.62,6.62H874.8a6.35,6.35,0,0,0,4.46-1.44L898,234.42c1.3-1.15,2-2.74,2-5.33V213.69c0-9.36-1.15-12.38-5.76-18.58l-11.09-14.69,11.09-15c4.61-6.19,5.76-9.22,5.76-18.58V135.78c0-4.61-2-6.62-6.62-6.62H871.49a7,7,0,0,0-4.61,1.3l-18.58,15.7c-1.3,1.15-2,2.74-2,5.33v1.73l-1.58-2.3c-1.15-1.58-1-3.46-1-5.18v-9.94c0-4.61-2-6.62-6.62-6.62H814.9a7,7,0,0,0-4.61,1.3l-18.58,15.7c-1.3,1.15-2,2.74-2,5.33v11.09c0,9.36,1.15,12.38,5.76,18.58L806.54,196l-11.09,14.83c-4.61,6.19-5.76,9.22-5.76,18.58v15.41c0,4.61,2,6.62,6.62,6.62h21.89a6.35,6.35,0,0,0,4.46-1.44Z"/><path id="regular-6c" class="cls-2" d="M98.5,234.28c3.6,0,5.18-1.58,5.18-5.18V183.74c0-3.6-1.58-5.18-5.18-5.18H77.62c-3.6,0-5.18,1.58-5.18,5.18v23.33H52.7V135.78c0-3.6-1.58-5.18-5.18-5.18H25.2c-3.6,0-5.18,1.58-5.18,5.18V229.1c0,3.6,1.58,5.18,5.18,5.18Z"/><path id="regular-65" class="cls-2" d="M192.1,234.28c3.6,0,5.18-1.58,5.18-5.18V212.25c0-3.6-1.58-5.18-5.18-5.18H152.35V194.68h28.08c3.6,0,5.18-1.58,5.18-5.18V174.09c0-3.6-1.58-5.18-5.18-5.18H152.35V157.82H192.1c3.6,0,5.18-1.58,5.18-5.18V135.78c0-3.6-1.58-5.18-5.18-5.18H125.28c-3.6,0-5.18,1.58-5.18,5.18V229.1c0,3.6,1.58,5.18,5.18,5.18Z"/><path id="regular-74-2" data-name="regular-74" class="cls-2" d="M263.23,234.28c3.6,0,5.18-1.58,5.18-5.18v-70.7h21.17c3.6,0,5.18-1.58,5.18-5.18V135.78c0-3.6-1.58-5.18-5.18-5.18h-76c-3.6,0-5.18,1.58-5.18,5.18v17.42c0,3.6,1.58,5.18,5.18,5.18h21.17v70.7c0,3.6,1.58,5.18,5.18,5.18Z"/><path id="regular-7a" class="cls-2" d="M380.59,234.28c3.6,0,5.18-1.58,5.18-5.18V212c0-3.6-1.58-5.18-5.18-5.18H346.18l33.41-40.46a11.73,11.73,0,0,0,3.6-9.07V135.78c0-3.6-1.58-5.18-5.18-5.18H311.76c-3.6,0-5.18,1.58-5.18,5.18v17.42c0,3.6,1.58,5.18,5.18,5.18h30.82l-35,42.48a11.63,11.63,0,0,0-3.6,8.93v19.3c0,3.6,1.58,5.18,5.18,5.18Z"/><path id="regular-67" class="cls-2" d="M481.54,234.28c3.6,0,5.18-1.58,5.18-5.18V184.6c0-3.6-1.58-5.18-5.18-5.18H459.22c-3.6,0-5.18,1.58-5.18,5.18v22.46h-14c-4.46,0-6.62-2.16-6.62-7.06V165.59c0-4.9,2.74-7.2,8.78-7.2h30c3.6,0,5.18-1.58,5.18-5.18V135.78c0-3.6-1.58-5.18-5.18-5.18h-36C412,130.6,400.75,140,400.75,160V204.9c0,20,11.23,29.38,35.42,29.38Z"/><path id="regular-65-2" data-name="regular-65" class="cls-2" d="M576.29,234.28c3.6,0,5.18-1.58,5.18-5.18V212.25c0-3.6-1.58-5.18-5.18-5.18H536.54V194.68h28.08c3.6,0,5.18-1.58,5.18-5.18V174.09c0-3.6-1.58-5.18-5.18-5.18H536.54V157.82h39.74c3.6,0,5.18-1.58,5.18-5.18V135.78c0-3.6-1.58-5.18-5.18-5.18H509.47c-3.6,0-5.18,1.58-5.18,5.18V229.1c0,3.6,1.58,5.18,5.18,5.18Z"/><path id="regular-61" class="cls-2" d="M636,160.84c.72-1.73,1.58-2.45,2.74-2.45h3.6c1.15,0,2,.72,2.74,2.45l6.77,21.89H629.28Zm-8.21,68.26V208.94h25.49V229.1c0,3.6,1.73,5.18,5.62,5.18h21.74c3.6,0,5.18-1.58,5.18-5.18v-38c0-5.76-1.73-13-5.62-23l-12.53-32.69c-1.15-3.31-3.46-4.75-7.2-4.75H621.79c-3.89,0-6.19,1.44-7.34,4.75L601.92,168c-3.89,10.08-5.62,17.28-5.62,23v38c0,3.6,1.58,5.18,5.18,5.18h21.17C626.26,234.28,627.84,232.7,627.84,229.1Z"/><path id="regular-75" class="cls-2" d="M791.86,207.06V135.78c0-3.6-1.58-5.18-5.18-5.18H764.78c-3.74,0-5.18,1.58-5.18,5.18v65.66c0,3.89-1.73,6.77-12,6.77s-11.81-2.88-11.81-6.77V135.78c0-3.6-1.58-5.18-5.18-5.18H708c-3.6,0-5.18,1.58-5.18,5.18v71.28c0,17.57,8.78,29.38,44.5,29.38S791.86,224.63,791.86,207.06Z"/><path id="regular-78" class="cls-2" d="M842,229.1V214.84c0-2-.14-4,1.3-6l6.48-9.07c1.15-1.73,1.87-2.45,3.46-2.45h2c1.58,0,2.3.72,3.46,2.45l6.34,9.07c1.44,2,1.3,4,1.3,6V229.1c0,3.6,1.58,5.18,5.18,5.18h21.89c3.6,0,5.18-1.58,5.18-5.18V213.69c0-8.93-1-11.81-5.47-17.71l-11.66-15.55,11.66-15.84c4.32-5.9,5.47-8.78,5.47-17.71V135.78c0-3.6-1.58-5.18-5.18-5.18H871.49c-3.6,0-5.18,1.58-5.18,5.18v9.94c0,2,0,4.18-1.3,6l-6.48,9.07c-1.15,1.58-1.87,2.45-3.46,2.45h-1.73c-1.58,0-2.45-.86-3.46-2.45l-6.34-9.07c-1.3-1.87-1.3-4-1.3-6v-9.94c0-3.6-1.58-5.18-5.18-5.18H814.9c-3.6,0-5.18,1.58-5.18,5.18v11.09c0,8.93,1,11.81,5.47,17.71l11.66,15.7L815.18,196c-4.32,5.9-5.47,8.78-5.47,17.71V229.1c0,3.6,1.58,5.18,5.18,5.18h21.89C840.38,234.28,842,232.7,842,229.1Z"/><path id="inline-6c" class="cls-3" d="M35.71,221.32h53V191.51H87.26v28.37H37.15V143.56H35.71Z"/><path id="inline-65" class="cls-3" d="M184.32,219.88H137.23v-37.3h35.42v-1.44H137.23V145h47.09v-1.44H135.79v77.76h48.53Z"/><path id="inline-74-2" data-name="inline-74" class="cls-3" d="M250.85,221.32h1.44V145h29.52v-1.44H221.33V145h29.52Z"/><path id="inline-7a" class="cls-3" d="M365.47,155.94c1.44-1.73,2.45-3.17,2.45-5.33v-2.3c0-3.31-1.3-4.75-4.46-4.75H319.54V145h43.92c1.58,0,3,.58,3,3.31v2c0,1.87-.58,2.74-2,4.46l-42.19,54.14c-1.44,1.73-2.45,3.17-2.45,5.33v2.3c0,3.31,1.3,4.75,4.46,4.75h48.53v-1.44H324.29c-1.58,0-3-.58-3-3.31v-2c0-1.87.58-2.74,2-4.46Z"/><path id="inline-67" class="cls-3" d="M442.37,221.32H471V192.38h-1.44v27.5H442.37c-19.44,0-24.48-4.61-24.48-17.14V162.42c0-12.82,4.61-17.42,21.6-17.42H464.4v-1.44H439.49c-18.43,0-23,5.18-23,18.86v40.32C416.45,216.14,421.2,221.32,442.37,221.32Z"/><path id="inline-65-2" data-name="inline-65" class="cls-3" d="M568.51,219.88H521.42v-37.3h35.42v-1.44H521.42V145h47.09v-1.44H520v77.76h48.53Z"/><path id="inline-61" class="cls-3" d="M613,190.65a37.74,37.74,0,0,1,2.3-13.39l9.22-23.62c1.87-4.9,3.46-8.64,9.22-8.64h14.11c5.33,0,6.91,3.74,9.07,8.78l9.94,23.47a37.74,37.74,0,0,1,2.3,13.39v4.46H613Zm56.16,30.67h1.44V190.65a38.36,38.36,0,0,0-2.45-14l-9.94-23.47c-2.3-5.62-4-9.65-10.37-9.65H633.74c-6.62,0-8.35,4.18-10.51,9.5L614,176.68a38.36,38.36,0,0,0-2.45,14v30.67H613V196.55h56.16Z"/><path id="inline-75" class="cls-3" d="M718.7,143.56v60c0,11.66,6.19,19.44,28.8,19.44s28.94-7.78,28.94-19.44v-60H775v60c0,10.8-6,18-27.5,18s-27.36-7.2-27.36-18v-60Z"/><path id="inline-78" class="cls-3" d="M826.56,214.84c0-4,.14-7.92,2-10.51l17-23.33h17.28l16.85,23.33c2,2.74,2,6.48,2,10.51v6.48h1.44v-6.48c0-4.18,0-8.06-2.16-11.09l-17-23.33,17-23.62c2.16-3,2.16-6.91,2.16-11.09v-2.16h-1.44v2.16c0,4-.14,7.78-2,10.51L863,179.56H845.86l-17.28-23.33c-2-2.74-2-6.48-2-10.51v-2.16h-1.44v2.16c0,4.18,0,8.06,2.16,11.09l17.28,23.33-17.28,23.62c-2.3,3.17-2.16,6.91-2.16,11.09v6.48h1.44Z"/></g></g></svg>