<svg xmlns="http://www.w3.org/2000/svg" viewBox="0 0 1560 127.42"><defs><style>.cls-1{fill:#781404;}.cls-2{fill:#fff;}.cls-3{fill:#dd9d5b;}</style></defs><title>logo</title><g id="Layer_2" data-name="Layer 2"><g id="Layer_1-2" data-name="Layer 1"><path id="shade-70" class="cls-1" d="M28.94,125.26a6.35,6.35,0,0,0,4.46-1.44l18.72-15.55c1.3-1.15,2-2.74,2-5.33V96c10.94-.43,18.43-3.17,23.18-7.2L96,73.27c6.34-5.33,8.64-13.1,8.64-22.32V32.52C104.69,15.1,96.77,3,69.26,3H25.2a7,7,0,0,0-4.61,1.3L2,20c-1.3,1.15-2,2.74-2,5.33v93.31c0,4.61,2,6.62,6.62,6.62Z"/><path id="shade-72" class="cls-1" d="M150.19,108.26c1.3-1.15,2-2.74,2-5.33V91.85h.14c3,0,4,1.58,4,4.75v22c0,4.61,2,6.62,6.62,6.62h22.32a6.35,6.35,0,0,0,4.46-1.44l18.72-15.55c1.3-1.15,2-2.74,2-5.33V72.41c0-11.38-5.9-19-15-21.6h.14c3.89-3.31,5.47-8.64,5.47-15.7V28.49c0-15-6.91-25.49-29.81-25.49h-48a7,7,0,0,0-4.61,1.3L100.22,20c-1.3,1.15-2,2.74-2,5.33v93.31c0,4.61,2,6.62,6.62,6.62H127a6.35,6.35,0,0,0,4.46-1.44Z"/><path id="shade-6f" class="cls-1" d="M286.56,118.34l18.58-15.55c6.48-5.47,8.64-13,8.64-21.89V31.8c0-18.14-8.35-31-46.08-31C248.4.84,237,4.15,230.26,9.91L211.54,25.46c-6.48,5.47-8.64,13.1-8.64,22V92.28c0,18.14,8.5,35.14,46.22,35.14C268.27,127.42,279.79,124.1,286.56,118.34ZM257,75.72V48.5a4,4,0,0,1,2.74,4.18V80A4.23,4.23,0,0,1,257,75.72Z"/><path id="shade-6e" class="cls-1" d="M362,108.26c1.3-1.15,2-2.74,2-5.33V97.61l3.17,3.89v17.14c0,4.61,2,6.62,6.62,6.62h21.6a6.35,6.35,0,0,0,4.46-1.44l18.72-15.55c1.3-1.15,2-2.74,2-5.33V9.62C420.62,5,418.61,3,414,3H392.4a7,7,0,0,0-4.61,1.3L370.37,18.84,360.43,7.32A11.53,11.53,0,0,0,350.78,3h-15a7,7,0,0,0-4.61,1.3L312.62,20c-1.3,1.15-2,2.74-2,5.33v93.31c0,4.61,2,6.62,6.62,6.62h21.6a6.35,6.35,0,0,0,4.46-1.44Z"/><path id="shade-74" class="cls-1" d="M469.44,125.26a6.35,6.35,0,0,0,4.46-1.44l18.72-15.55c1.3-1.15,2-2.74,2-5.33V49.37h1.15a6.35,6.35,0,0,0,4.46-1.44L519,32.38c1.3-1.15,2-2.74,2-5.33V9.62C521,5,519,3,514.37,3h-76a7,7,0,0,0-4.61,1.3L415.15,20c-1.3,1.15-2,2.74-2,5.33V42.74c0,4.61,2,6.62,6.62,6.62h19.73v69.26c0,4.61,2,6.62,6.62,6.62Z"/><path id="shade-6f-2" data-name="shade-6f" class="cls-1" d="M594.86,118.34l18.58-15.55c6.48-5.47,8.64-13,8.64-21.89V31.8c0-18.14-8.35-31-46.08-31-19.3,0-30.67,3.31-37.44,9.07L519.84,25.46c-6.48,5.47-8.64,13.1-8.64,22V92.28c0,18.14,8.5,35.14,46.22,35.14C576.58,127.42,588.1,124.1,594.86,118.34ZM565.34,75.72V48.5a4,4,0,0,1,2.74,4.18V80A4.23,4.23,0,0,1,565.34,75.72Z"/><path id="regular-70" class="cls-2" d="M47.52,108.12c3.6,0,5.18-1.58,5.18-5.18V79H69.26c26.21,0,34-11.38,34-28.08V32.52c0-16.7-7.78-28.08-34-28.08H25.2C21.6,4.44,20,6,20,9.62v93.31c0,3.6,1.58,5.18,5.18,5.18Zm4.9-76.75h13c5.62,0,6.77,3.31,6.77,7.06v7.63c0,3.74-1.15,7.06-6.77,7.06h-13Z"/><path id="regular-72" class="cls-2" d="M150.77,30.36h10.8c5,0,6.34,2.88,6.34,6.77V42c0,3.89-1.3,6.77-6.34,6.77h-10.8Zm-5.18,77.76c3.6,0,5.18-1.58,5.18-5.18V74.71h20.16c4,0,5.47,1.87,5.47,6.19v22c0,3.6,1.58,5.18,5.18,5.18H203.9c3.6,0,5.18-1.58,5.18-5.18V72.41c0-12.1-6.91-19.73-17.42-20.88,6-2.59,8.06-8.35,8.06-16.42V28.49c0-14.26-6.77-24-28.37-24h-48c-3.6,0-5.18,1.58-5.18,5.18v93.31c0,3.6,1.58,5.18,5.18,5.18Z"/><path id="regular-6f" class="cls-2" d="M312.34,80.9V31.8c0-17.57-8.64-29.52-44.64-29.52s-44.78,12-44.78,29.52V80.9c0,17.57,8.78,29.38,44.78,29.38S312.34,98.47,312.34,80.9ZM255.6,75.72V37c0-3.74,1.73-6.62,12.1-6.62s12.1,2.88,12.1,6.62V75.72c0,3.89-1.58,6.77-12.1,6.77S255.6,79.61,255.6,75.72Z"/><path id="regular-6e" class="cls-2" d="M357.41,108.12c3.6,0,5.18-1.58,5.18-5.18V55.42l24.62,29.81v17.71c0,3.6,1.58,5.18,5.18,5.18H414c3.6,0,5.18-1.58,5.18-5.18V9.62c0-3.6-1.58-5.18-5.18-5.18H392.4c-3.6,0-5.18,1.58-5.18,5.18V40.3l-27.94-32a9.81,9.81,0,0,0-8.5-3.89h-15c-3.6,0-5.18,1.58-5.18,5.18v93.31c0,3.6,1.58,5.18,5.18,5.18Z"/><path id="regular-74" class="cls-2" d="M488,108.12c3.6,0,5.18-1.58,5.18-5.18V32.23h21.17c3.6,0,5.18-1.58,5.18-5.18V9.62c0-3.6-1.58-5.18-5.18-5.18h-76c-3.6,0-5.18,1.58-5.18,5.18V27c0,3.6,1.58,5.18,5.18,5.18H459.5v70.7c0,3.6,1.58,5.18,5.18,5.18Z"/><path id="regular-6f-2" data-name="regular-6f" class="cls-2" d="M620.64,80.9V31.8C620.64,14.23,612,2.28,576,2.28s-44.78,12-44.78,29.52V80.9c0,17.57,8.78,29.38,44.78,29.38S620.64,98.47,620.64,80.9ZM563.9,75.72V37c0-3.74,1.73-6.62,12.1-6.62s12.1,2.88,12.1,6.62V75.72c0,3.89-1.58,6.77-12.1,6.77S563.9,79.61,563.9,75.72Z"/><path id="inline-70" class="cls-3" d="M67.25,66.79c18.14,0,21.6-7.92,21.6-19.15V37c0-11.23-3.46-19.58-21.6-19.58H36.14V95.16h1.44V66.79ZM37.58,65.35V18.84H67.25c17,0,20.16,7.78,20.16,18.14V47.64c0,10.37-3.17,17.71-20.16,17.71Z"/><path id="inline-72" class="cls-3" d="M166.61,18.84c10.22,0,15,6,15,15V43.9c0,10.66-3,16.56-15,16.56H135.22V18.84ZM135.22,95.16V61.75H176c10.94,0,16,4.61,16,14.11v19.3h1.44V75.86c0-10.08-5.62-15.41-17.42-15.41h-1.58c6.91-2.16,8.64-7.92,8.64-16.7V33.82c0-9.5-5.18-16.42-16.42-16.42H133.78V95.16Z"/><path id="inline-6f" class="cls-3" d="M296.64,77.59V35.11c0-11.66-6.62-19.44-29.23-19.44s-28.94,7.78-28.94,19.44V77.59c0,11.66,6.34,19.44,28.94,19.44S296.64,89.26,296.64,77.59Zm-56.74,0V35.11c0-10.8,6-18,27.5-18s27.79,7.2,27.79,18V77.59c0,10.8-6.34,18-27.79,18S239.9,88.39,239.9,77.59Z"/><path id="inline-6e" class="cls-3" d="M349.63,18.55c-1-1-1.3-1.3-2.16-1.3A1.66,1.66,0,0,0,345.74,19V95.16h1.44V19.27c0-.14,0-.43.29-.43s.43.14.72.43l54.43,61.06V95.16h1.44V17.4h-1.44V78.17Z"/><path id="inline-74" class="cls-3" d="M475.63,95.16h1.44V18.84h29.52V17.4H446.11v1.44h29.52Z"/><path id="inline-6f-2" data-name="inline-6f" class="cls-3" d="M604.94,77.59V35.11c0-11.66-6.62-19.44-29.23-19.44s-28.94,7.78-28.94,19.44V77.59c0,11.66,6.34,19.44,28.94,19.44S604.94,89.26,604.94,77.59Zm-56.74,0V35.11c0-10.8,6-18,27.5-18s27.79,7.2,27.79,18V77.59c0,10.8-6.34,18-27.79,18S548.21,88.39,548.21,77.59Z"/><path id="shade-6c" class="cls-1" d="M739.92,122.26a6.35,6.35,0,0,0,4.46-1.44l18.72-15.55c1.3-1.15,2-2.74,2-5.33V54.58c0-4.61-2-6.62-6.62-6.62H737.62a7,7,0,0,0-4.61,1.3l-18.58,15.7-.29.29V6.62c0-4.61-2-6.62-6.62-6.62H685.2a7,7,0,0,0-4.61,1.3L662,17c-1.3,1.15-2,2.74-2,5.33v93.31c0,4.61,2,6.62,6.62,6.62Z"/><path id="shade-65" class="cls-1" d="M833.52,122.26a6.35,6.35,0,0,0,4.46-1.44l18.72-15.55c1.3-1.15,2-2.74,2-5.33V83.09c0-4.61-2-6.62-6.62-6.62H832.22L845,65.66c1.3-1.15,2-2.74,2-5.33V44.93c0-3-.86-4.9-2.74-5.9L856.7,28.8c1.3-1.15,2-2.74,2-5.33V6.62c0-4.61-2-6.62-6.62-6.62H785.28a7,7,0,0,0-4.61,1.3L762.1,17c-1.3,1.15-2,2.74-2,5.33v93.31c0,4.61,2,6.62,6.62,6.62Z"/><path id="shade-74-2" data-name="shade-74" class="cls-1" d="M904.66,122.26a6.35,6.35,0,0,0,4.46-1.44l18.72-15.55c1.3-1.15,2-2.74,2-5.33V46.37H931a6.35,6.35,0,0,0,4.46-1.44l18.72-15.55c1.3-1.15,2-2.74,2-5.33V6.62c0-4.61-2-6.62-6.62-6.62h-76a7,7,0,0,0-4.61,1.3L850.37,17c-1.3,1.15-2,2.74-2,5.33V39.74c0,4.61,2,6.62,6.62,6.62H874.7v69.26c0,4.61,2,6.62,6.62,6.62Z"/><path id="shade-7a" class="cls-1" d="M1022,122.26a6.35,6.35,0,0,0,4.46-1.44l18.72-15.55c1.3-1.15,2-2.74,2-5.33V82.8c0-4.61-2-6.62-6.62-6.62H1009.2L1040.74,38a12.92,12.92,0,0,0,3.89-9.94V6.62c0-4.61-2-6.62-6.62-6.62H971.76a7,7,0,0,0-4.61,1.3L948.58,17c-1.3,1.15-2,2.74-2,5.33V39.74c0,4.61,2,6.62,6.62,6.62H981L947.86,86.54A12.81,12.81,0,0,0,944,96.34v19.3c0,4.61,2,6.62,6.62,6.62Z"/><path id="shade-67" class="cls-1" d="M1123,122.26a6.35,6.35,0,0,0,4.46-1.44l18.72-15.55c1.3-1.15,2-2.74,2-5.33V55.44c0-4.61-2-6.62-6.62-6.62h-22.32a7,7,0,0,0-4.61,1.3L1096,65.81a9.32,9.32,0,0,0-1.15,1.3V46.37h18.72a6.35,6.35,0,0,0,4.46-1.44l18.72-15.55c1.3-1.15,2-2.74,2-5.33V6.62c0-4.61-2-6.62-6.62-6.62h-36c-12.53,0-21.74,2.45-27.79,7.49l-18.58,15.7c-6,5.18-9.07,12.67-9.07,23.33V87.12c0,20.88,11.52,35.14,36.86,35.14Z"/><path id="shade-65-2" data-name="shade-65" class="cls-1" d="M1217.71,122.26a6.35,6.35,0,0,0,4.46-1.44l18.72-15.55c1.3-1.15,2-2.74,2-5.33V83.09c0-4.61-2-6.62-6.62-6.62h-19.87l12.82-10.8c1.3-1.15,2-2.74,2-5.33V44.93c0-3-.86-4.9-2.74-5.9L1240.9,28.8c1.3-1.15,2-2.74,2-5.33V6.62c0-4.61-2-6.62-6.62-6.62h-66.82a7,7,0,0,0-4.61,1.3L1146.29,17c-1.3,1.15-2,2.74-2,5.33v93.31c0,4.61,2,6.62,6.62,6.62Z"/><path id="shade-61" class="cls-1" d="M1268.54,120.82l18.72-15.55c1.3-1.15,2-2.74,2-5.33v-3h4v18.72c0,4.46,2.16,6.62,7.06,6.62h21.74a6.35,6.35,0,0,0,4.46-1.44l18.72-15.55c1.3-1.15,2-2.74,2-5.33v-38c0-5.9-1.73-13.25-5.76-23.62L1329,5.62c-1.3-3.89-4-5.62-8.5-5.62h-38.74c-2.74,0-4.75.58-6.34,2L1257,17.42l-.14.14a9.5,9.5,0,0,0-2.45,3.89L1242,54c-4,10.37-5.76,17.71-5.76,23.62v38c0,4.61,2,6.62,6.62,6.62h21.17A6.35,6.35,0,0,0,1268.54,120.82Z"/><path id="shade-75" class="cls-1" d="M1388.78,124.42c19,0,30.38-3.31,37.15-9.07l18.72-15.55c6.48-5.47,8.64-13,8.64-21.89V6.62c0-4.61-2-6.62-6.62-6.62h-21.89a6.78,6.78,0,0,0-4.61,1.3L1401.46,17l-.14.14c-1.15,1-1.73,2.59-1.73,5.18v54c-1.87-.86-2.3-2.3-2.3-4V6.62c0-4.61-2-6.62-6.62-6.62H1368a7,7,0,0,0-4.61,1.3L1344.86,17c-1.3,1.15-2,2.74-2,5.33v67C1342.85,107.42,1351.34,124.42,1388.78,124.42Z"/><path id="shade-78" class="cls-1" d="M1501.39,105.26c1.3-1.15,2-2.74,2-5.33V93.6l1.87,2.59c1.15,1.73,1,3.46,1,5.18v14.26c0,4.61,2,6.62,6.62,6.62h21.89a6.35,6.35,0,0,0,4.46-1.44L1558,105.26c1.3-1.15,2-2.74,2-5.33V84.53c0-9.36-1.15-12.38-5.76-18.58l-11.09-14.69,11.09-15c4.61-6.19,5.76-9.22,5.76-18.58V6.62C1560,2,1558,0,1553.38,0h-21.89a7,7,0,0,0-4.61,1.3L1508.3,17c-1.3,1.15-2,2.74-2,5.33V24l-1.58-2.3c-1.15-1.58-1-3.46-1-5.18V6.62c0-4.61-2-6.62-6.62-6.62H1474.9a7,7,0,0,0-4.61,1.3L1451.71,17c-1.3,1.15-2,2.74-2,5.33V33.41c0,9.36,1.15,12.38,5.76,18.58l11.09,14.83-11.09,14.83c-4.61,6.19-5.76,9.22-5.76,18.58v15.41c0,4.61,2,6.62,6.62,6.62h21.89a6.35,6.35,0,0,0,4.46-1.44Z"/><path id="regular-6c" class="cls-2" d="M758.5,105.12c3.6,0,5.18-1.58,5.18-5.18V54.58c0-3.6-1.58-5.18-5.18-5.18H737.62c-3.6,0-5.18,1.58-5.18,5.18V77.9H712.7V6.62c0-3.6-1.58-5.18-5.18-5.18H685.2C681.6,1.44,680,3,680,6.62V99.94c0,3.6,1.58,5.18,5.18,5.18Z"/><path id="regular-65" class="cls-2" d="M852.1,105.12c3.6,0,5.18-1.58,5.18-5.18V83.09c0-3.6-1.58-5.18-5.18-5.18H812.35V65.52h28.08c3.6,0,5.18-1.58,5.18-5.18V44.93c0-3.6-1.58-5.18-5.18-5.18H812.35V28.66H852.1c3.6,0,5.18-1.58,5.18-5.18V6.62c0-3.6-1.58-5.18-5.18-5.18H785.28c-3.6,0-5.18,1.58-5.18,5.18V99.94c0,3.6,1.58,5.18,5.18,5.18Z"/><path id="regular-74-2" data-name="regular-74" class="cls-2" d="M923.23,105.12c3.6,0,5.18-1.58,5.18-5.18V29.23h21.17c3.6,0,5.18-1.58,5.18-5.18V6.62c0-3.6-1.58-5.18-5.18-5.18h-76c-3.6,0-5.18,1.58-5.18,5.18V24c0,3.6,1.58,5.18,5.18,5.18h21.17v70.7c0,3.6,1.58,5.18,5.18,5.18Z"/><path id="regular-7a" class="cls-2" d="M1040.59,105.12c3.6,0,5.18-1.58,5.18-5.18V82.8c0-3.6-1.58-5.18-5.18-5.18h-34.42l33.41-40.46a11.73,11.73,0,0,0,3.6-9.07V6.62c0-3.6-1.58-5.18-5.18-5.18H971.76c-3.6,0-5.18,1.58-5.18,5.18V24c0,3.6,1.58,5.18,5.18,5.18h30.82l-35,42.48a11.63,11.63,0,0,0-3.6,8.93v19.3c0,3.6,1.58,5.18,5.18,5.18Z"/><path id="regular-67" class="cls-2" d="M1141.54,105.12c3.6,0,5.18-1.58,5.18-5.18V55.44c0-3.6-1.58-5.18-5.18-5.18h-22.32c-3.6,0-5.18,1.58-5.18,5.18V77.9h-14c-4.46,0-6.62-2.16-6.62-7.06V36.43c0-4.9,2.74-7.2,8.78-7.2h30c3.6,0,5.18-1.58,5.18-5.18V6.62c0-3.6-1.58-5.18-5.18-5.18h-36c-24.19,0-35.42,9.36-35.42,29.38V75.74c0,20,11.23,29.38,35.42,29.38Z"/><path id="regular-65-2" data-name="regular-65" class="cls-2" d="M1236.29,105.12c3.6,0,5.18-1.58,5.18-5.18V83.09c0-3.6-1.58-5.18-5.18-5.18h-39.74V65.52h28.08c3.6,0,5.18-1.58,5.18-5.18V44.93c0-3.6-1.58-5.18-5.18-5.18h-28.08V28.66h39.74c3.6,0,5.18-1.58,5.18-5.18V6.62c0-3.6-1.58-5.18-5.18-5.18h-66.82c-3.6,0-5.18,1.58-5.18,5.18V99.94c0,3.6,1.58,5.18,5.18,5.18Z"/><path id="regular-61" class="cls-2" d="M1296,31.68c.72-1.73,1.58-2.45,2.74-2.45h3.6c1.15,0,2,.72,2.74,2.45l6.77,21.89h-22.61Zm-8.21,68.26V79.78h25.49V99.94c0,3.6,1.73,5.18,5.62,5.18h21.74c3.6,0,5.18-1.58,5.18-5.18v-38c0-5.76-1.73-13-5.62-23L1327.73,6.19c-1.15-3.31-3.46-4.75-7.2-4.75h-38.74c-3.89,0-6.19,1.44-7.34,4.75l-12.53,32.69c-3.89,10.08-5.62,17.28-5.62,23v38c0,3.6,1.58,5.18,5.18,5.18h21.17C1286.26,105.12,1287.84,103.54,1287.84,99.94Z"/><path id="regular-75" class="cls-2" d="M1451.86,77.9V6.62c0-3.6-1.58-5.18-5.18-5.18h-21.89c-3.74,0-5.18,1.58-5.18,5.18V72.29c0,3.89-1.73,6.77-12,6.77s-11.81-2.88-11.81-6.77V6.62c0-3.6-1.58-5.18-5.18-5.18H1368c-3.6,0-5.18,1.58-5.18,5.18V77.9c0,17.57,8.78,29.38,44.5,29.38S1451.86,95.47,1451.86,77.9Z"/><path id="regular-78" class="cls-2" d="M1502,99.94V85.68c0-2-.14-4,1.3-6l6.48-9.07c1.15-1.73,1.87-2.45,3.46-2.45h2c1.58,0,2.3.72,3.46,2.45l6.34,9.07c1.44,2,1.3,4,1.3,6V99.94c0,3.6,1.58,5.18,5.18,5.18h21.89c3.6,0,5.18-1.58,5.18-5.18V84.53c0-8.93-1-11.81-5.47-17.71l-11.66-15.55,11.66-15.84c4.32-5.9,5.47-8.78,5.47-17.71V6.62c0-3.6-1.58-5.18-5.18-5.18h-21.89c-3.6,0-5.18,1.58-5.18,5.18v9.94c0,2,0,4.18-1.3,6l-6.48,9.07c-1.15,1.58-1.87,2.45-3.46,2.45h-1.73c-1.58,0-2.45-.86-3.46-2.45l-6.34-9.07c-1.3-1.87-1.3-4-1.3-6V6.62c0-3.6-1.58-5.18-5.18-5.18H1474.9c-3.6,0-5.18,1.58-5.18,5.18V17.71c0,8.93,1,11.81,5.47,17.71l11.66,15.7-11.66,15.7c-4.32,5.9-5.47,8.78-5.47,17.71V99.94c0,3.6,1.58,5.18,5.18,5.18h21.89C1500.38,105.12,1502,103.54,1502,99.94Z"/><path id="inline-6c" class="cls-3" d="M695.71,92.16h53V62.35h-1.44V90.72H697.15V14.4h-1.44Z"/><path id="inline-65" class="cls-3" d="M844.32,90.72H797.23V53.42h35.42V52H797.23V15.84h47.09V14.4H795.79V92.16h48.53Z"/><path id="inline-74-2" data-name="inline-74" class="cls-3" d="M910.85,92.16h1.44V15.84h29.52V14.4H881.33v1.44h29.52Z"/><path id="inline-7a" class="cls-3" d="M1025.47,26.78c1.44-1.73,2.45-3.17,2.45-5.33v-2.3c0-3.31-1.3-4.75-4.46-4.75H979.54v1.44h43.92c1.58,0,3,.58,3,3.31v2c0,1.87-.58,2.74-2,4.46L982.27,79.78c-1.44,1.73-2.45,3.17-2.45,5.33v2.3c0,3.31,1.3,4.75,4.46,4.75h48.53V90.72H984.29c-1.58,0-3-.58-3-3.31v-2c0-1.87.58-2.74,2-4.46Z"/><path id="inline-67" class="cls-3" d="M1102.37,92.16H1131V63.22h-1.44v27.5h-27.22c-19.44,0-24.48-4.61-24.48-17.14V33.26c0-12.82,4.61-17.42,21.6-17.42h24.91V14.4h-24.91c-18.43,0-23,5.18-23,18.86V73.58C1076.45,87,1081.2,92.16,1102.37,92.16Z"/><path id="inline-65-2" data-name="inline-65" class="cls-3" d="M1228.51,90.72h-47.09V53.42h35.42V52h-35.42V15.84h47.09V14.4H1180V92.16h48.53Z"/><path id="inline-61" class="cls-3" d="M1273,61.49a37.74,37.74,0,0,1,2.3-13.39l9.22-23.62c1.87-4.9,3.46-8.64,9.22-8.64h14.11c5.33,0,6.91,3.74,9.07,8.78l9.94,23.47a37.74,37.74,0,0,1,2.3,13.39V66H1273Zm56.16,30.67h1.44V61.49a38.36,38.36,0,0,0-2.45-14L1318.22,24c-2.3-5.62-4-9.65-10.37-9.65h-14.11c-6.62,0-8.35,4.18-10.51,9.5L1274,47.52a38.36,38.36,0,0,0-2.45,14V92.16H1273V67.39h56.16Z"/><path id="inline-75" class="cls-3" d="M1378.7,14.4v60c0,11.66,6.19,19.44,28.8,19.44s28.94-7.78,28.94-19.44v-60H1435v60c0,10.8-6,18-27.5,18s-27.36-7.2-27.36-18v-60Z"/><path id="inline-78" class="cls-3" d="M1486.56,85.68c0-4,.14-7.92,2-10.51l17-23.33h17.28l16.85,23.33c2,2.74,2,6.48,2,10.51v6.48h1.44V85.68c0-4.18,0-8.06-2.16-11.09l-17-23.33,17-23.62c2.16-3,2.16-6.91,2.16-11.09V14.4h-1.44v2.16c0,4-.14,7.78-2,10.51L1523,50.4h-17.14l-17.28-23.33c-2-2.74-2-6.48-2-10.51V14.4h-1.44v2.16c0,4.18,0,8.06,2.16,11.09L1504.56,51l-17.28,23.62c-2.3,3.17-2.16,6.91-2.16,11.09v6.48h1.44Z"/></g></g></svg>