<?xml version="1.0" encoding="utf-8"?>
<!-- Generator: Adobe Illustrator 21.1.0, SVG Export Plug-In . SVG Version: 6.00 Build 0)  -->
<svg version="1.1" id="Layer_1" xmlns="http://www.w3.org/2000/svg" xmlns:xlink="http://www.w3.org/1999/xlink" x="0px" y="0px"
	 viewBox="0 0 500 125" style="enable-background:new 0 0 500 125;" xml:space="preserve">
<style type="text/css">
	.st0{fill:#BA4C7E;}
	.st1{fill:#FFFFFF;}
</style>
<title>seatsasset</title>
<g id="Layer_2">
	<g id="Layer_1-2">
		<path id="shade-73" class="st0" d="M6.8,125h47c10,0,18-2.5,23.5-7.1L96.6,102c5.8-4.7,8.8-11.6,8.8-20.4V66.1
			c0-15.9-8.2-22.5-20.8-25.3l13.4-11c1.3-1.2,2.1-2.8,2.1-5.4V6.8c0-4.7-2.1-6.8-6.9-6.8H51.5C41.4,0,33.4,2.5,28,6.9L8.6,23
			C3,27.7,0,34.6,0,43.4v15.5c0,14.3,6.4,21,17,24.3L2.1,95.5C0.7,96.7,0,98.3,0,101v17.2C0,122.9,2.1,125,6.8,125z"/>
		<path id="shade-65" class="st0" d="M175.4,125c1.7,0.1,3.3-0.4,4.6-1.5l19.4-15.9c1.3-1.2,2.1-2.8,2.1-5.4V84.9
			c0-4.7-2.1-6.8-6.8-6.8h-20.5l13.3-11c1.3-1.2,2.1-2.8,2.1-5.4V45.9c0-3.1-0.9-5-2.8-6l12.8-10.5c1.3-1.2,2.1-2.8,2.1-5.4V6.8
			c0-4.7-2.1-6.8-6.8-6.8h-69.1c-1.7-0.1-3.4,0.3-4.8,1.3l-19.2,16c-1.3,1.2-2.1,2.8-2.1,5.4v95.4c0,4.7,2.1,6.8,6.8,6.8H175.4z"/>
		<path id="shade-61" class="st0" d="M228,123.5l19.4-15.9c1.3-1.2,2.1-2.8,2.1-5.4v-3.1h4.1v19.1c0,4.6,2.2,6.8,7.3,6.8h22.5
			c1.7,0.1,3.3-0.4,4.6-1.5l19.4-15.9c1.3-1.2,2.1-2.8,2.1-5.4V63.3c0-6-1.8-13.5-6-24.1L290.5,5.8c-1.3-4-4.1-5.7-8.8-5.7h-40
			c-2.8,0-4.9,0.6-6.5,2L216,17.8l-0.1,0.1c-1.2,1.1-2,2.5-2.5,4l-12.8,33.3c-4.1,10.6-6,18.1-6,24.1v38.8c0,4.7,2.1,6.8,6.8,6.8
			h21.9C225,125.1,226.7,124.5,228,123.5z"/>
		<path id="shade-74" class="st0" d="M351.7,125c1.7,0.1,3.3-0.4,4.6-1.5l19.4-15.9c1.3-1.2,2.1-2.8,2.1-5.4V47.4h1.2
			c1.7,0.1,3.3-0.4,4.6-1.5L402.9,30c1.3-1.2,2.1-2.8,2.1-5.4V6.8c0-4.7-2.1-6.8-6.8-6.8h-78.6c-1.7-0.1-3.4,0.3-4.8,1.3l-19.2,16
			c-1.3,1.2-2.1,2.8-2.1,5.4v17.8c0,4.7,2.1,6.8,6.8,6.8h20.4v70.8c0,4.7,2.1,6.8,6.8,6.8L351.7,125z"/>
		<path id="shade-73-2" class="st0" d="M401.4,125h47c10,0,18-2.5,23.5-7.1l19.2-15.9c5.8-4.7,8.8-11.6,8.8-20.4V66.1
			c0-15.9-8.2-22.5-20.8-25.3l13.4-11c1.3-1.2,2.1-2.8,2.1-5.4V6.8c0-4.7-2.1-6.8-6.8-6.8h-41.7c-10.1,0-18.2,2.5-23.5,6.9l-19.3,16
			c-5.7,4.7-8.6,11.6-8.6,20.4v15.5c0,14.3,6.4,21,17,24.3l-14.9,12.4c-1.3,1.2-2.1,2.8-2.1,5.4v17.2
			C394.6,122.9,396.7,125,401.4,125z"/>
		<path id="regular-73" class="st1" d="M73.1,107.4c19.2,0,30.8-9.1,30.8-25.9V66.1c0-16.5-9.2-22.4-23.2-24.4l-22.2-3
			c-2.4-0.2-4.2-2.3-4-4.7c0,0,0,0,0-0.1c0-2.6,1.5-4.4,4-4.4h34.7c3.7,0,5.4-1.6,5.4-5.3V6.8c0-3.7-1.6-5.3-5.4-5.3H51.5
			c-19.4,0-30.8,9.1-30.8,25.9v15.5c0,16.5,9.1,22.4,23.1,24.4l22.3,3.1c2.5,0.3,3.9,1.6,3.9,5c0,2.4-1.3,4.3-3.9,4.3H26.1
			c-3.7,0-5.4,1.6-5.4,5.3v17.2c0,3.7,1.6,5.3,5.4,5.3H73.1z"/>
		<path id="regular-65" class="st1" d="M194.6,107.4c3.7,0,5.4-1.6,5.4-5.3V84.9c0-3.7-1.6-5.3-5.4-5.3h-41.1V67h29
			c3.7,0,5.4-1.6,5.4-5.3V45.9c0-3.7-1.6-5.3-5.4-5.3h-29V29.3h41.1c3.7,0,5.4-1.6,5.4-5.3V6.8c0-3.7-1.6-5.3-5.4-5.3h-69.1
			c-3.7,0-5.4,1.6-5.4,5.3v95.4c0,3.7,1.6,5.3,5.4,5.3H194.6z"/>
		<path id="regular-61" class="st1" d="M256.4,32.4c0.7-1.8,1.6-2.5,2.8-2.5h3.7c1.2,0,2.1,0.7,2.8,2.5l7,22.4h-23.4L256.4,32.4z
			 M247.9,102.2V81.6h26.4v20.6c0,3.7,1.8,5.3,5.8,5.3h22.5c3.7,0,5.4-1.6,5.4-5.3V63.3c0-5.9-1.8-13.3-5.8-23.5l-13-33.5
			c-1.2-3.4-3.6-4.9-7.4-4.9h-40.1c-4,0-6.4,1.5-7.6,4.9l-13,33.4c-4,10.3-5.8,17.7-5.8,23.5v38.8c0,3.7,1.6,5.3,5.4,5.3h21.9
			C246.3,107.4,247.9,105.8,247.9,102.2L247.9,102.2z"/>
		<path id="regular-74" class="st1" d="M370.9,107.4c3.7,0,5.4-1.6,5.4-5.3V29.9h21.9c3.7,0,5.4-1.6,5.4-5.3V6.8
			c0-3.7-1.6-5.3-5.4-5.3h-78.6c-3.7,0-5.4,1.6-5.4,5.3v17.8c0,3.7,1.6,5.3,5.4,5.3h21.9v72.3c0,3.7,1.6,5.3,5.4,5.3L370.9,107.4z"
			/>
		<path id="regular-73-2" class="st1" d="M467.7,107.4c19.2,0,30.8-9.1,30.8-25.9V66.1c0-16.5-9.2-22.4-23.2-24.4l-22.2-2.9
			c-2.4-0.2-4.2-2.3-4-4.7c0,0,0,0,0-0.1c0-2.6,1.5-4.4,4-4.4h34.7c3.7,0,5.4-1.6,5.4-5.3V6.8c0-3.7-1.6-5.3-5.4-5.3h-41.7
			c-19.4,0-30.8,9.1-30.8,25.9v15.5c0,16.5,9.1,22.4,23.1,24.4l22.3,3.1c2.5,0.3,3.9,1.6,3.9,5c0,2.4-1.3,4.3-3.9,4.3h-40
			c-3.7,0-5.4,1.6-5.4,5.3v17.3c0,3.7,1.6,5.3,5.4,5.3H467.7z"/>
		<path id="inline-73" class="st0" d="M85.2,14.7H52.1c-9.2,0-15.2,5.6-15.2,13.4v12.1c0,8.1,3.6,10.3,8.8,11.3l31.4,6.3
			c5.5,1.2,9.1,3.7,9.1,12.9v8.5c0,7.8-5.8,13.4-15,13.4h-37v1.5h37c10.1,0,16.5-6.1,16.5-14.9v-8.5c0-10.3-4.3-13.3-10.3-14.4
			L46,50.1c-4.6-0.9-7.6-2.9-7.6-9.9V28.1c0-6.9,5.4-11.9,13.7-11.9h33.1L85.2,14.7z"/>
		<path id="inline-65" class="st0" d="M186.6,92.7h-48.7V54.6h36.6v-1.5h-36.6v-37h48.7v-1.5h-50.2v79.5h50.2V92.7z"/>
		<path id="inline-61" class="st0" d="M232.6,62.9c-0.1-4.7,0.8-9.3,2.4-13.7l9.5-24.1c1.9-5,3.6-8.8,9.5-8.8h14.6
			c5.5,0,7.1,3.8,9.4,9l10.3,24c1.6,4.4,2.4,9,2.4,13.7v4.6h-58.1V62.9z M290.7,94.2h1.5V62.9c0.1-4.9-0.8-9.7-2.5-14.3l-10.3-24
			c-2.4-5.7-4.1-9.9-10.7-9.9H254c-6.8,0-8.6,4.3-10.9,9.7l-9.5,24.1c-1.7,4.6-2.6,9.4-2.5,14.3v31.4h1.5V68.9h58.1L290.7,94.2z"/>
		<path id="inline-74" class="st0" d="M358.1,94.2h1.5v-78h30.5v-1.5h-62.5v1.5h30.5L358.1,94.2z"/>
		<path id="inline-73-2" class="st0" d="M479.8,14.7h-33.1c-9.2,0-15.2,5.6-15.2,13.4v12.1c0,8.1,3.6,10.3,8.8,11.3l31.4,6.3
			c5.5,1.2,9.1,3.7,9.1,12.9v8.5c0,7.8-5.8,13.4-15,13.4h-37.1v1.5h37.1c10.1,0,16.5-6.1,16.5-14.9v-8.5c0-10.3-4.3-13.3-10.3-14.4
			l-31.4-6.3c-4.6-0.9-7.6-2.9-7.6-9.9V28.1c0-6.9,5.4-11.9,13.7-11.9h33.1L479.8,14.7z"/>
	</g>
</g>
</svg>
