<svg xmlns="http://www.w3.org/2000/svg" viewBox="0 0 487.3 126.58"><defs><style>.cls-1{fill:#dd9d5b;}.cls-2{fill:#fff;}</style></defs><title>sofia</title><g id="Layer_2" data-name="Layer 2"><g id="Layer_1-2" data-name="Layer 1"><path id="shade-53" class="cls-1" d="M6.62,124.42h45.5c9.65,0,17.42-2.45,22.75-6.91L93.46,102c5.62-4.61,8.5-11.38,8.5-20V66.82C102,51.26,94,44.78,81.79,42l13-10.8c1.3-1.15,2-2.74,2-5.33V8.78c0-4.61-2-6.62-6.62-6.62H49.82C40,2.16,32.26,4.61,27.07,8.93L8.35,24.62C2.88,29.23,0,36,0,44.64V59.76c0,14,6.19,20.59,16.42,23.76L2,95.62c-1.3,1.15-2,2.74-2,5.33v16.85C0,122.4,2,124.42,6.62,124.42Z"/><path id="shade-6f" class="cls-1" d="M178.27,117.5,196.85,102c6.48-5.47,8.64-13,8.64-21.89V31c0-18.14-8.35-31-46.08-31C140.11,0,128.74,3.31,122,9.07L103.25,24.62c-6.48,5.47-8.64,13.1-8.64,22V91.44c0,18.14,8.5,35.14,46.22,35.14C160,126.58,171.5,123.26,178.27,117.5ZM148.75,74.88V47.66a4,4,0,0,1,2.74,4.18V79.2A4.23,4.23,0,0,1,148.75,74.88Z"/><path id="shade-66" class="cls-1" d="M231.26,124.42a6.35,6.35,0,0,0,4.46-1.44l18.72-15.55c1.3-1.15,2-2.74,2-5.33V90.86h5A6.35,6.35,0,0,0,266,89.42l18.72-15.55c1.3-1.15,2-2.74,2-5.33V51.26c0-4.61-2-6.62-6.48-6.62l16.13-13.39c1.3-1.15,2-2.74,2-5.33V8.78c0-4.61-2-6.62-6.62-6.62H227.52a7,7,0,0,0-4.61,1.3l-18.58,15.7c-1.3,1.15-2,2.74-2,5.33v93.31c0,4.61,2,6.62,6.62,6.62Z"/><path id="shade-69" class="cls-1" d="M357,124.42a6.35,6.35,0,0,0,4.46-1.44l18.72-15.55c1.3-1.15,2-2.74,2-5.33V85c0-4.61-2-6.62-6.62-6.62H363V45.94l17.14-14.4c1.3-1.15,2-2.74,2-5.33V8.78c0-4.61-2-6.62-6.62-6.62H314.21a7,7,0,0,0-4.61,1.3L291,19.15c-1.3,1.15-2,2.74-2,5.33V41.9c0,4.61,2,6.62,6.62,6.62h12.82V80.64L291,95.33c-1.3,1.15-2,2.74-2,5.33v17.14c0,4.61,2,6.62,6.62,6.62Z"/><path id="shade-61" class="cls-1" d="M408.53,123l18.72-15.55c1.3-1.15,2-2.74,2-5.33v-3h4v18.72c0,4.46,2.16,6.62,7.06,6.62H462.1a6.35,6.35,0,0,0,4.46-1.44l18.72-15.55c1.3-1.15,2-2.74,2-5.33v-38c0-5.9-1.73-13.25-5.76-23.62L469,7.78c-1.3-3.89-4-5.62-8.5-5.62H421.78c-2.74,0-4.75.58-6.34,2L397,19.58l-.14.14a9.5,9.5,0,0,0-2.45,3.89L382,56.16c-4,10.37-5.76,17.71-5.76,23.62v38c0,4.61,2,6.62,6.62,6.62h21.17A6.35,6.35,0,0,0,408.53,123Z"/><path id="regular-53" class="cls-2" d="M70.7,107.28c18.58,0,29.81-8.93,29.81-25.34V66.82c0-16.13-8.93-21.89-22.46-23.9L56.59,40a4.24,4.24,0,0,1-3.89-4.61c0-2.59,1.44-4.32,3.89-4.32H90.14c3.6,0,5.18-1.58,5.18-5.18V8.78c0-3.6-1.58-5.18-5.18-5.18H49.82C31.1,3.6,20,12.53,20,28.94V44.06C20,60.19,28.8,66,42.34,68l21.6,3c2.45.29,3.74,1.58,3.74,4.9,0,2.3-1.3,4.18-3.74,4.18H25.2c-3.6,0-5.18,1.58-5.18,5.18V102.1c0,3.6,1.58,5.18,5.18,5.18Z"/><path id="regular-6f" class="cls-2" d="M204,80.06V31c0-17.57-8.64-29.52-44.64-29.52s-44.78,12-44.78,29.52v49.1c0,17.57,8.78,29.38,44.78,29.38S204,97.63,204,80.06Zm-56.74-5.18V36.14c0-3.74,1.73-6.62,12.1-6.62s12.1,2.88,12.1,6.62V74.88c0,3.89-1.58,6.77-12.1,6.77S147.31,78.77,147.31,74.88Z"/><path id="regular-66" class="cls-2" d="M249.84,107.28c3.6,0,5.18-1.58,5.18-5.18V73.73h25.06c3.6,0,5.18-1.58,5.18-5.18V51.26c0-3.6-1.58-5.18-5.18-5.18H255v-15h36.72c3.6,0,5.18-1.58,5.18-5.18V8.78c0-3.6-1.58-5.18-5.18-5.18H227.52c-3.6,0-5.18,1.58-5.18,5.18V102.1c0,3.6,1.58,5.18,5.18,5.18Z"/><path id="regular-69" class="cls-2" d="M314.21,107.28h61.34c3.6,0,5.18-1.58,5.18-5.18V85c0-3.6-1.58-5.18-5.18-5.18h-14V31.39h14c3.6,0,5.18-1.58,5.18-5.18V8.78c0-3.6-1.58-5.18-5.18-5.18H314.21c-3.6,0-5.18,1.58-5.18,5.18V26.21c0,3.6,1.58,5.18,5.18,5.18h14.26V79.78H314.21c-3.6,0-5.18,1.58-5.18,5.18V102.1C309,105.7,310.61,107.28,314.21,107.28Z"/><path id="regular-61" class="cls-2" d="M436,33.84c.72-1.73,1.58-2.45,2.74-2.45h3.6c1.15,0,2,.72,2.74,2.45l6.77,21.89H429.26Zm-8.21,68.26V81.94h25.49V102.1c0,3.6,1.73,5.18,5.62,5.18h21.74c3.6,0,5.18-1.58,5.18-5.18v-38c0-5.76-1.73-13-5.62-23L467.71,8.35c-1.15-3.31-3.46-4.75-7.2-4.75H421.78c-3.89,0-6.19,1.44-7.34,4.75L401.9,41c-3.89,10.08-5.62,17.28-5.62,23v38c0,3.6,1.58,5.18,5.18,5.18h21.17C426.24,107.28,427.82,105.7,427.82,102.1Z"/><path id="inline-53" class="cls-1" d="M82.37,16.56h-32c-8.93,0-14.69,5.47-14.69,13.1V41.47c0,7.92,3.46,10.08,8.5,11.09l30.38,6.19c5.33,1.15,8.78,3.6,8.78,12.67v8.35c0,7.63-5.62,13.1-14.54,13.1H33v1.44H68.83c9.79,0,16-6,16-14.54V71.42c0-10.08-4.18-13-9.94-14.11L44.5,51.12c-4.46-.86-7.34-2.88-7.34-9.65V29.66C37.15,22.9,42.34,18,50.4,18h32Z"/><path id="inline-6f" class="cls-1" d="M188.35,76.75V34.27c0-11.66-6.62-19.44-29.23-19.44s-28.94,7.78-28.94,19.44V76.75c0,11.66,6.34,19.44,28.94,19.44S188.35,88.42,188.35,76.75Zm-56.74,0V34.27c0-10.8,6-18,27.5-18s27.79,7.2,27.79,18V76.75c0,10.8-6.34,18-27.79,18S131.62,87.55,131.62,76.75Z"/><path id="inline-66" class="cls-1" d="M238,94.32h1.44V60.62H272.3V59.18H239.47V18H284V16.56H238Z"/><path id="inline-69" class="cls-1" d="M367.78,94.32V92.88h-22V18h22V16.56H322V18H344.3V92.88H322v1.44Z"/><path id="inline-61" class="cls-1" d="M413,63.65a37.74,37.74,0,0,1,2.3-13.39l9.22-23.62c1.87-4.9,3.46-8.64,9.22-8.64h14.11c5.33,0,6.91,3.74,9.07,8.78l9.94,23.47a37.74,37.74,0,0,1,2.3,13.39v4.46H413Zm56.16,30.67h1.44V63.65a38.36,38.36,0,0,0-2.45-14l-9.94-23.47c-2.3-5.62-4-9.65-10.37-9.65H433.73c-6.62,0-8.35,4.18-10.51,9.5L414,49.68a38.36,38.36,0,0,0-2.45,14V94.32H413V69.55h56.16Z"/></g></g></svg>